M48
; DRILL file {KiCad 7.0.8} date Tue Nov 14 14:25:35 2023
; FORMAT={-:-/ absolute / inch / decimal}
; #@! TF.CreationDate,2023-11-14T14:25:35+07:00
; #@! TF.GenerationSoftware,Kicad,Pcbnew,7.0.8
; #@! TF.FileFunction,Plated,1,4,PTH
FMAT,2
INCH
; #@! TA.AperFunction,Plated,PTH,ViaDrill
T1C0.0118
%
G90
G05
T1
X4.0427Y-4.254
X4.0669Y-4.5827
X4.0709Y-3.2441
X4.0709Y-3.7756
X4.0876Y-3.6024
X4.1496Y-4.1535
X4.1614Y-3.6575
X4.1654Y-4.0866
X4.1693Y-3.4685
X4.1693Y-4.0354
X4.1811Y-4.1772
X4.189Y-3.252
X4.1929Y-3.5512
X4.2126Y-4.378
X4.2283Y-3.4488
X4.2441Y-3.2598
X4.2677Y-3.8307
X4.2736Y-4.563
X4.2795Y-3.6024
X4.2835Y-3.4528
X4.2835Y-3.5167
X4.2992Y-3.3346
X4.312Y-4.4449
X4.3346Y-3.3858
X4.3386Y-3.4409
X4.3661Y-4.3858
X4.3701Y-4.0965
X4.3809Y-4.5
X4.3819Y-3.8789
X4.3819Y-3.94
X4.3819Y-4.1575
X4.3825Y-4.1254
X4.3898Y-3.6703
X4.3898Y-3.7116
X4.4016Y-4.2579
X4.4016Y-4.3189
X4.4055Y-3.6024
X4.4134Y-3.7559
X4.4547Y-4.563
X4.4567Y-4.5
X4.4724Y-3.5866
X4.4803Y-4.1614
X4.4882Y-4.3937
X4.4897Y-3.5066
X4.5165Y-4.2754
X4.5236Y-3.378
X4.5236Y-3.7441
X4.5276Y-3.2323
X4.5297Y-3.6514
X4.5305Y-3.7756
X4.5394Y-3.8661
X4.5551Y-4.4528
X4.5787Y-4.2795
X4.6063Y-4.3898
X4.6063Y-4.4449
X4.625Y-3.7087
X4.626Y-3.3937
X4.6457Y-3.4449
X4.6589Y-4.498
X4.6614Y-4.252
X4.6654Y-4.0354
X4.6811Y-4.2874
X4.689Y-4.5787
X4.7231Y-3.9721
X4.7278Y-3.8504
X4.7293Y-3.7953
X4.7313Y-3.8976
X4.7313Y-4.0906
X4.7319Y-4.2992
X4.7332Y-4.0315
X4.7344Y-3.7098
X4.748Y-4.5866
X4.7598Y-4.2205
X4.7717Y-4.3307
X4.7835Y-3.2717
X4.7918Y-3.8932
X4.7927Y-3.8504
X4.7927Y-4.2213
X4.7963Y-4.0315
X4.7992Y-3.7087
X4.8228Y-4.5866
X4.8238Y-4.2164
X4.8425Y-3.6772
X4.8465Y-3.2559
X4.8583Y-4.0787
X4.8589Y-4.2143
X4.8661Y-3.7373
X4.8819Y-4.3583
X4.8898Y-4.2205
X4.8937Y-4.5866
X4.9016Y-4.3898
X4.9213Y-4.0
X4.9213Y-4.0433
X4.9267Y-4.2202
X4.937Y-3.2559
X4.9488Y-4.378
X4.9567Y-4.5197
X4.9803Y-3.6614
X4.997Y-3.6951
X5.0197Y-3.2598
X5.0688Y-4.1691
X5.0787Y-4.3583
X5.0787Y-4.4055
X5.0984Y-3.501
X5.0984Y-3.5512
X5.128Y-4.1614
X5.1654Y-3.7362
X5.1929Y-4.3583
X5.2087Y-3.7362
X5.2087Y-3.7795
X5.2165Y-3.6929
X5.2362Y-4.4843
X5.248Y-3.7362
X5.248Y-3.7795
X5.252Y-3.6693
X5.2677Y-3.2598
X5.2795Y-4.5394
X5.3465Y-3.5423
X5.3465Y-3.6299
X5.3465Y-4.4213
X5.4567Y-3.248
X5.4614Y-4.0397
X5.4646Y-3.6063
X5.4646Y-4.3622
X5.4685Y-4.2677
X5.4724Y-4.437
X5.4764Y-4.1024
X5.4764Y-4.185
T0
M30
