%TF.GenerationSoftware,KiCad,Pcbnew,7.0.8*%
%TF.CreationDate,2023-11-14T14:25:30+07:00*%
%TF.ProjectId,Pixracer_clone,50697872-6163-4657-925f-636c6f6e652e,rev?*%
%TF.SameCoordinates,Original*%
%TF.FileFunction,Paste,Bot*%
%TF.FilePolarity,Positive*%
%FSLAX46Y46*%
G04 Gerber Fmt 4.6, Leading zero omitted, Abs format (unit mm)*
G04 Created by KiCad (PCBNEW 7.0.8) date 2023-11-14 14:25:30*
%MOMM*%
%LPD*%
G01*
G04 APERTURE LIST*
G04 Aperture macros list*
%AMRoundRect*
0 Rectangle with rounded corners*
0 $1 Rounding radius*
0 $2 $3 $4 $5 $6 $7 $8 $9 X,Y pos of 4 corners*
0 Add a 4 corners polygon primitive as box body*
4,1,4,$2,$3,$4,$5,$6,$7,$8,$9,$2,$3,0*
0 Add four circle primitives for the rounded corners*
1,1,$1+$1,$2,$3*
1,1,$1+$1,$4,$5*
1,1,$1+$1,$6,$7*
1,1,$1+$1,$8,$9*
0 Add four rect primitives between the rounded corners*
20,1,$1+$1,$2,$3,$4,$5,0*
20,1,$1+$1,$4,$5,$6,$7,0*
20,1,$1+$1,$6,$7,$8,$9,0*
20,1,$1+$1,$8,$9,$2,$3,0*%
G04 Aperture macros list end*
%ADD10RoundRect,0.200000X-0.200000X-0.275000X0.200000X-0.275000X0.200000X0.275000X-0.200000X0.275000X0*%
%ADD11RoundRect,0.225000X0.250000X-0.225000X0.250000X0.225000X-0.250000X0.225000X-0.250000X-0.225000X0*%
%ADD12RoundRect,0.200000X0.200000X0.275000X-0.200000X0.275000X-0.200000X-0.275000X0.200000X-0.275000X0*%
%ADD13RoundRect,0.250000X0.400000X0.450000X-0.400000X0.450000X-0.400000X-0.450000X0.400000X-0.450000X0*%
%ADD14RoundRect,0.200000X0.275000X-0.200000X0.275000X0.200000X-0.275000X0.200000X-0.275000X-0.200000X0*%
%ADD15RoundRect,0.250000X-0.325000X-0.650000X0.325000X-0.650000X0.325000X0.650000X-0.325000X0.650000X0*%
%ADD16RoundRect,0.375000X-0.625000X-0.375000X0.625000X-0.375000X0.625000X0.375000X-0.625000X0.375000X0*%
%ADD17RoundRect,0.200000X0.800000X-0.200000X0.800000X0.200000X-0.800000X0.200000X-0.800000X-0.200000X0*%
%ADD18RoundRect,0.250000X-0.625000X0.375000X-0.625000X-0.375000X0.625000X-0.375000X0.625000X0.375000X0*%
%ADD19RoundRect,0.225000X0.225000X0.250000X-0.225000X0.250000X-0.225000X-0.250000X0.225000X-0.250000X0*%
%ADD20RoundRect,0.150000X-0.512500X-0.150000X0.512500X-0.150000X0.512500X0.150000X-0.512500X0.150000X0*%
%ADD21R,1.550000X0.600000*%
%ADD22R,2.600000X3.100000*%
%ADD23RoundRect,0.250000X-0.400000X-0.275000X0.400000X-0.275000X0.400000X0.275000X-0.400000X0.275000X0*%
%ADD24RoundRect,0.225000X-0.225000X-0.250000X0.225000X-0.250000X0.225000X0.250000X-0.225000X0.250000X0*%
%ADD25RoundRect,0.225000X-0.250000X0.225000X-0.250000X-0.225000X0.250000X-0.225000X0.250000X0.225000X0*%
%ADD26R,0.600000X1.450000*%
%ADD27R,0.300000X1.450000*%
%ADD28O,1.000000X1.600000*%
%ADD29O,1.000000X2.100000*%
%ADD30R,2.400000X1.500000*%
%ADD31R,1.600000X0.700000*%
%ADD32R,1.600000X1.400000*%
%ADD33R,2.200000X1.400000*%
%ADD34R,1.400000X1.800000*%
%ADD35RoundRect,0.375000X0.625000X0.375000X-0.625000X0.375000X-0.625000X-0.375000X0.625000X-0.375000X0*%
%ADD36RoundRect,0.200000X-0.275000X0.200000X-0.275000X-0.200000X0.275000X-0.200000X0.275000X0.200000X0*%
G04 APERTURE END LIST*
D10*
%TO.C,R20*%
X131450000Y-96690000D03*
X133100000Y-96690000D03*
%TD*%
D11*
%TO.C,C5*%
X136400000Y-96475000D03*
X136400000Y-94925000D03*
%TD*%
D12*
%TO.C,R14*%
X121825000Y-99000000D03*
X120175000Y-99000000D03*
%TD*%
D13*
%TO.C,D2*%
X136250000Y-104890000D03*
X133350000Y-104890000D03*
%TD*%
D14*
%TO.C,R9*%
X112400000Y-87200000D03*
X112400000Y-85550000D03*
%TD*%
D15*
%TO.C,C35*%
X130525000Y-92700000D03*
X133475000Y-92700000D03*
%TD*%
D16*
%TO.C,J2*%
X103300000Y-113900000D03*
X103300000Y-111600000D03*
X103300000Y-109300000D03*
%TD*%
D11*
%TO.C,C40*%
X135800000Y-92675000D03*
X135800000Y-91125000D03*
%TD*%
D17*
%TO.C,SW2*%
X114900000Y-87200000D03*
X114900000Y-83000000D03*
%TD*%
D18*
%TO.C,D1*%
X130200000Y-84300000D03*
X130200000Y-87100000D03*
%TD*%
D19*
%TO.C,C15*%
X138775000Y-90000000D03*
X137225000Y-90000000D03*
%TD*%
D10*
%TO.C,R19*%
X128350000Y-96690000D03*
X130000000Y-96690000D03*
%TD*%
D20*
%TO.C,U10*%
X131100000Y-90800000D03*
X131100000Y-89850000D03*
X131100000Y-88900000D03*
X133375000Y-88900000D03*
X133375000Y-90800000D03*
%TD*%
D21*
%TO.C,U5*%
X130700000Y-102840000D03*
X130700000Y-101570000D03*
X130700000Y-100300000D03*
X130700000Y-99030000D03*
X136100000Y-99030000D03*
X136100000Y-100300000D03*
X136100000Y-101570000D03*
X136100000Y-102840000D03*
D22*
X133400000Y-100935000D03*
%TD*%
D12*
%TO.C,R15*%
X121735000Y-97800000D03*
X120085000Y-97800000D03*
%TD*%
%TO.C,R11*%
X121825000Y-102400000D03*
X120175000Y-102400000D03*
%TD*%
D23*
%TO.C,C11*%
X128625000Y-94690000D03*
X130575000Y-94690000D03*
%TD*%
D12*
%TO.C,R17*%
X121735000Y-96400000D03*
X120085000Y-96400000D03*
%TD*%
%TO.C,R12*%
X121825000Y-103900000D03*
X120175000Y-103900000D03*
%TD*%
D11*
%TO.C,C10*%
X135800000Y-89975000D03*
X135800000Y-88425000D03*
%TD*%
D24*
%TO.C,C7*%
X110200000Y-89400000D03*
X111750000Y-89400000D03*
%TD*%
D12*
%TO.C,R13*%
X121825000Y-101100000D03*
X120175000Y-101100000D03*
%TD*%
D11*
%TO.C,C14*%
X112400000Y-84075000D03*
X112400000Y-82525000D03*
%TD*%
D25*
%TO.C,C12*%
X131600000Y-104115000D03*
X131600000Y-105665000D03*
%TD*%
D26*
%TO.C,P1*%
X120100000Y-89500000D03*
X120900000Y-89500000D03*
D27*
X122100000Y-89500000D03*
X123100000Y-89500000D03*
X123600000Y-89500000D03*
X124600000Y-89500000D03*
D26*
X125800000Y-89500000D03*
X126600000Y-89500000D03*
X126600000Y-89500000D03*
X125800000Y-89500000D03*
D27*
X125100000Y-89500000D03*
X124100000Y-89500000D03*
X122600000Y-89500000D03*
X121600000Y-89500000D03*
D26*
X120900000Y-89500000D03*
X120100000Y-89500000D03*
D28*
X119030000Y-84405000D03*
D29*
X119030000Y-88585000D03*
D28*
X127670000Y-84405000D03*
D29*
X127670000Y-88585000D03*
%TD*%
D30*
%TO.C,L1*%
X126300000Y-103950000D03*
X126300000Y-98450000D03*
%TD*%
D19*
%TO.C,C41*%
X121775000Y-94200000D03*
X120225000Y-94200000D03*
%TD*%
D31*
%TO.C,J18*%
X116800000Y-97200000D03*
X116800000Y-98300000D03*
X116800000Y-99400000D03*
X116800000Y-100500000D03*
X116800000Y-101600000D03*
X116800000Y-102700000D03*
X116800000Y-103800000D03*
X116800000Y-104900000D03*
X116800000Y-106000000D03*
D32*
X116200000Y-107300000D03*
D33*
X106700000Y-107300000D03*
X106700000Y-91600000D03*
D34*
X116300000Y-92500000D03*
%TD*%
D35*
%TO.C,J19*%
X138700000Y-94300000D03*
X138700000Y-96800000D03*
%TD*%
D36*
%TO.C,R1*%
X108800000Y-87675000D03*
X108800000Y-89325000D03*
%TD*%
M02*
