%TF.GenerationSoftware,KiCad,Pcbnew,7.0.8*%
%TF.CreationDate,2023-11-14T14:25:30+07:00*%
%TF.ProjectId,Pixracer_clone,50697872-6163-4657-925f-636c6f6e652e,rev?*%
%TF.SameCoordinates,Original*%
%TF.FileFunction,Copper,L3,Inr*%
%TF.FilePolarity,Positive*%
%FSLAX46Y46*%
G04 Gerber Fmt 4.6, Leading zero omitted, Abs format (unit mm)*
G04 Created by KiCad (PCBNEW 7.0.8) date 2023-11-14 14:25:30*
%MOMM*%
%LPD*%
G01*
G04 APERTURE LIST*
%TA.AperFunction,ViaPad*%
%ADD10C,0.600000*%
%TD*%
%TA.AperFunction,Conductor*%
%ADD11C,0.250000*%
%TD*%
G04 APERTURE END LIST*
D10*
%TO.N,GND*%
X132500000Y-93800000D03*
X131200000Y-94900000D03*
X133300000Y-96000000D03*
X133300000Y-94900000D03*
X132300000Y-96000000D03*
X132300000Y-94900000D03*
X115700000Y-113100000D03*
X120600000Y-116500000D03*
X122500000Y-116500000D03*
X124300000Y-116500000D03*
X118500000Y-102500000D03*
X113200000Y-114300000D03*
X105900000Y-102500000D03*
X123000000Y-93400000D03*
X123400000Y-103600000D03*
X125000000Y-102700000D03*
X117000000Y-111500000D03*
X117000000Y-112900000D03*
X108400000Y-97300000D03*
X105700000Y-92900000D03*
X108700000Y-91500000D03*
X120254089Y-94229089D03*
X135800000Y-112300000D03*
X110900000Y-111400000D03*
X125000000Y-101600000D03*
X111900000Y-91500000D03*
X109525000Y-112900000D03*
X129000000Y-111900000D03*
X111275000Y-114300000D03*
X114900000Y-85800000D03*
X130250000Y-105700000D03*
X133400000Y-93200000D03*
X105800000Y-103800000D03*
X123100000Y-82700000D03*
X112100000Y-95400000D03*
X103300000Y-116400000D03*
X107000000Y-111200000D03*
X103400000Y-82400000D03*
X134100000Y-115300000D03*
X114720000Y-108595000D03*
X121500000Y-83100000D03*
X108550000Y-115900000D03*
X103824500Y-91500000D03*
X105400000Y-105500000D03*
X119100000Y-116300000D03*
X111300000Y-100075000D03*
X111500000Y-93225000D03*
X109200000Y-84700000D03*
X125700000Y-111200000D03*
X106400000Y-82600000D03*
X105900000Y-88100000D03*
X129500000Y-90200000D03*
X124500000Y-111500000D03*
X114038453Y-89068840D03*
X107400000Y-87600000D03*
X106500000Y-90200000D03*
X113150000Y-115900000D03*
X121200000Y-110000000D03*
X111800000Y-108150000D03*
X107800000Y-82800000D03*
%TO.N,VCC*%
X111500000Y-94275000D03*
X129000000Y-110700000D03*
X111300000Y-98525000D03*
X121711180Y-98886180D03*
X121900000Y-94200000D03*
X124000000Y-110700000D03*
X138600000Y-82500000D03*
X111800000Y-109700000D03*
X128747363Y-105894500D03*
X125900000Y-114800000D03*
X135800000Y-89975000D03*
X133000000Y-113900000D03*
X116300000Y-108700000D03*
X121825000Y-102400000D03*
X106200000Y-106100000D03*
X102685658Y-108050500D03*
X129500000Y-88925000D03*
X121735000Y-97800000D03*
X108800000Y-87700000D03*
X135800000Y-92200000D03*
X131900000Y-110700000D03*
%TO.N,NRST*%
X115300000Y-98200000D03*
%TO.N,BOOT0*%
X108800000Y-89325000D03*
%TO.N,USB_D+*%
X126922649Y-93856622D03*
%TO.N,TIM1_CH3*%
X139100000Y-104200000D03*
X124200000Y-107200000D03*
%TO.N,TIM1_CH2*%
X123416023Y-107043204D03*
X139100000Y-106300000D03*
%TO.N,TIM1_CH1*%
X138900000Y-108400000D03*
X122525130Y-107096013D03*
%TO.N,I2C_SCl*%
X127500000Y-82800000D03*
X118000000Y-87500000D03*
%TO.N,I2C_SDA*%
X125400000Y-82700500D03*
X117500000Y-86200000D03*
%TO.N,LED2*%
X110100000Y-86000000D03*
X114900000Y-95100000D03*
%TO.N,LED3*%
X110200000Y-87400000D03*
X115075500Y-95900000D03*
%TO.N,SDIO0*%
X120224500Y-102400000D03*
%TO.N,SDIO1*%
X120175000Y-103900000D03*
%TO.N,SDIO_CLK*%
X119966219Y-100891219D03*
X123600000Y-94927463D03*
%TO.N,SDIO_CMD*%
X120175000Y-99000000D03*
%TO.N,SDIO3*%
X120085000Y-97800000D03*
%TO.N,SDIO2*%
X120124500Y-96400000D03*
%TO.N,USB_D-*%
X126500000Y-93000000D03*
%TO.N,TIM1_CH4*%
X125137750Y-107193472D03*
X138718809Y-102608191D03*
%TO.N,UART7_TX*%
X138800000Y-110800000D03*
X121735505Y-107221303D03*
%TO.N,UART7_RX*%
X120900000Y-107200000D03*
X139000000Y-112700000D03*
%TO.N,IMU_MOSI*%
X118335000Y-114250000D03*
X118400000Y-108000000D03*
%TO.N,IMU_MISO*%
X120191089Y-109200000D03*
X118900000Y-108900000D03*
%TO.N,BATT_CURRENT_SENSE*%
X113800000Y-105700000D03*
%TO.N,5V_IN*%
X103400000Y-95900000D03*
X138800000Y-91600000D03*
X133800000Y-82800000D03*
X115000000Y-82100000D03*
%TO.N,MOSI_OSD*%
X111300000Y-105600000D03*
X117474500Y-94200000D03*
%TO.N,SCLK_OSD*%
X113600000Y-91100000D03*
X111314902Y-104784875D03*
%TO.N,BATT_VOLT*%
X114000000Y-111600000D03*
%TO.N,MISO_OSD*%
X111000000Y-104050000D03*
X115053379Y-92746621D03*
%TD*%
D11*
%TO.N,MOSI_OSD*%
X114863604Y-105000000D02*
X117474500Y-102389104D01*
X111983661Y-105000000D02*
X114863604Y-105000000D01*
X111383661Y-105600000D02*
X111983661Y-105000000D01*
X111300000Y-105600000D02*
X111383661Y-105600000D01*
X117474500Y-102389104D02*
X117474500Y-94200000D01*
%TO.N,SCLK_OSD*%
X111314902Y-104784875D02*
X111468759Y-104784875D01*
X116036396Y-91100000D02*
X113600000Y-91100000D01*
X114677208Y-104550000D02*
X116850000Y-102377208D01*
X111468759Y-104784875D02*
X111703634Y-104550000D01*
X111703634Y-104550000D02*
X114677208Y-104550000D01*
X116850000Y-91913604D02*
X116036396Y-91100000D01*
X116850000Y-102377208D02*
X116850000Y-91913604D01*
%TO.N,MISO_OSD*%
X115950000Y-93086396D02*
X115950000Y-102640812D01*
X115610225Y-92746621D02*
X115950000Y-93086396D01*
X115950000Y-102640812D02*
X114490812Y-104100000D01*
X114490812Y-104100000D02*
X111050000Y-104100000D01*
X111050000Y-104100000D02*
X111000000Y-104050000D01*
X115053379Y-92746621D02*
X115610225Y-92746621D01*
%TD*%
%TA.AperFunction,Conductor*%
%TO.N,VCC*%
G36*
X139817539Y-81045185D02*
G01*
X139863294Y-81097989D01*
X139874500Y-81149500D01*
X139874500Y-117150500D01*
X139854815Y-117217539D01*
X139802011Y-117263294D01*
X139750500Y-117274500D01*
X102349500Y-117274500D01*
X102282461Y-117254815D01*
X102236706Y-117202011D01*
X102225500Y-117150500D01*
X102225500Y-116400000D01*
X102794353Y-116400000D01*
X102814834Y-116542456D01*
X102874622Y-116673371D01*
X102874623Y-116673373D01*
X102968872Y-116782143D01*
X103089947Y-116859953D01*
X103089950Y-116859954D01*
X103089949Y-116859954D01*
X103228036Y-116900499D01*
X103228038Y-116900500D01*
X103228039Y-116900500D01*
X103371962Y-116900500D01*
X103371962Y-116900499D01*
X103510053Y-116859953D01*
X103631128Y-116782143D01*
X103725377Y-116673373D01*
X103785165Y-116542457D01*
X103805647Y-116400000D01*
X103785165Y-116257543D01*
X103725377Y-116126627D01*
X103631128Y-116017857D01*
X103510053Y-115940047D01*
X103510051Y-115940046D01*
X103510049Y-115940045D01*
X103510050Y-115940045D01*
X103371963Y-115899500D01*
X103371961Y-115899500D01*
X103228039Y-115899500D01*
X103228036Y-115899500D01*
X103089949Y-115940045D01*
X102968873Y-116017856D01*
X102874623Y-116126626D01*
X102874622Y-116126628D01*
X102814834Y-116257543D01*
X102794353Y-116400000D01*
X102225500Y-116400000D01*
X102225500Y-115100000D01*
X104546556Y-115100000D01*
X104565680Y-115343006D01*
X104622588Y-115580045D01*
X104715868Y-115805245D01*
X104715870Y-115805248D01*
X104843233Y-116013085D01*
X104843239Y-116013094D01*
X105001546Y-116198448D01*
X105001551Y-116198453D01*
X105183424Y-116353787D01*
X105186909Y-116356763D01*
X105186914Y-116356766D01*
X105394751Y-116484129D01*
X105394754Y-116484131D01*
X105619954Y-116577411D01*
X105619959Y-116577413D01*
X105856988Y-116634319D01*
X106100000Y-116653444D01*
X106343012Y-116634319D01*
X106580041Y-116577413D01*
X106766933Y-116500000D01*
X106805245Y-116484131D01*
X106805246Y-116484130D01*
X106805249Y-116484129D01*
X107013091Y-116356763D01*
X107198451Y-116198451D01*
X107356763Y-116013091D01*
X107426065Y-115900000D01*
X108044353Y-115900000D01*
X108064834Y-116042456D01*
X108124622Y-116173371D01*
X108124623Y-116173373D01*
X108218872Y-116282143D01*
X108339947Y-116359953D01*
X108339950Y-116359954D01*
X108339949Y-116359954D01*
X108447107Y-116391417D01*
X108476336Y-116400000D01*
X108478036Y-116400499D01*
X108478038Y-116400500D01*
X108478039Y-116400500D01*
X108621962Y-116400500D01*
X108621962Y-116400499D01*
X108760053Y-116359953D01*
X108881128Y-116282143D01*
X108975377Y-116173373D01*
X109035165Y-116042457D01*
X109055647Y-115900000D01*
X112644353Y-115900000D01*
X112664834Y-116042456D01*
X112724622Y-116173371D01*
X112724623Y-116173373D01*
X112818872Y-116282143D01*
X112939947Y-116359953D01*
X112939950Y-116359954D01*
X112939949Y-116359954D01*
X113047107Y-116391417D01*
X113076336Y-116400000D01*
X113078036Y-116400499D01*
X113078038Y-116400500D01*
X113078039Y-116400500D01*
X113221962Y-116400500D01*
X113221962Y-116400499D01*
X113360053Y-116359953D01*
X113453342Y-116300000D01*
X118594353Y-116300000D01*
X118614834Y-116442456D01*
X118660504Y-116542457D01*
X118674623Y-116573373D01*
X118768872Y-116682143D01*
X118889947Y-116759953D01*
X118889950Y-116759954D01*
X118889949Y-116759954D01*
X119028036Y-116800499D01*
X119028038Y-116800500D01*
X119028039Y-116800500D01*
X119171962Y-116800500D01*
X119171962Y-116800499D01*
X119310053Y-116759953D01*
X119431128Y-116682143D01*
X119525377Y-116573373D01*
X119558886Y-116500000D01*
X120094353Y-116500000D01*
X120114834Y-116642456D01*
X120128953Y-116673371D01*
X120174623Y-116773373D01*
X120268872Y-116882143D01*
X120389947Y-116959953D01*
X120389950Y-116959954D01*
X120389949Y-116959954D01*
X120528036Y-117000499D01*
X120528038Y-117000500D01*
X120528039Y-117000500D01*
X120671962Y-117000500D01*
X120671962Y-117000499D01*
X120810053Y-116959953D01*
X120931128Y-116882143D01*
X121025377Y-116773373D01*
X121085165Y-116642457D01*
X121105647Y-116500000D01*
X121994353Y-116500000D01*
X122014834Y-116642456D01*
X122028953Y-116673371D01*
X122074623Y-116773373D01*
X122168872Y-116882143D01*
X122289947Y-116959953D01*
X122289950Y-116959954D01*
X122289949Y-116959954D01*
X122428036Y-117000499D01*
X122428038Y-117000500D01*
X122428039Y-117000500D01*
X122571962Y-117000500D01*
X122571962Y-117000499D01*
X122710053Y-116959953D01*
X122831128Y-116882143D01*
X122925377Y-116773373D01*
X122985165Y-116642457D01*
X123005647Y-116500000D01*
X123794353Y-116500000D01*
X123814834Y-116642456D01*
X123828953Y-116673371D01*
X123874623Y-116773373D01*
X123968872Y-116882143D01*
X124089947Y-116959953D01*
X124089950Y-116959954D01*
X124089949Y-116959954D01*
X124228036Y-117000499D01*
X124228038Y-117000500D01*
X124228039Y-117000500D01*
X124371962Y-117000500D01*
X124371962Y-117000499D01*
X124510053Y-116959953D01*
X124631128Y-116882143D01*
X124725377Y-116773373D01*
X124785165Y-116642457D01*
X124805647Y-116500000D01*
X124785165Y-116357543D01*
X124725377Y-116226627D01*
X124631128Y-116117857D01*
X124510053Y-116040047D01*
X124510051Y-116040046D01*
X124510049Y-116040045D01*
X124510050Y-116040045D01*
X124371963Y-115999500D01*
X124371961Y-115999500D01*
X124228039Y-115999500D01*
X124228036Y-115999500D01*
X124089949Y-116040045D01*
X123968873Y-116117856D01*
X123874623Y-116226626D01*
X123874622Y-116226628D01*
X123814834Y-116357543D01*
X123794353Y-116500000D01*
X123005647Y-116500000D01*
X122985165Y-116357543D01*
X122925377Y-116226627D01*
X122831128Y-116117857D01*
X122710053Y-116040047D01*
X122710051Y-116040046D01*
X122710049Y-116040045D01*
X122710050Y-116040045D01*
X122571963Y-115999500D01*
X122571961Y-115999500D01*
X122428039Y-115999500D01*
X122428036Y-115999500D01*
X122289949Y-116040045D01*
X122168873Y-116117856D01*
X122074623Y-116226626D01*
X122074622Y-116226628D01*
X122014834Y-116357543D01*
X121994353Y-116500000D01*
X121105647Y-116500000D01*
X121085165Y-116357543D01*
X121025377Y-116226627D01*
X120931128Y-116117857D01*
X120810053Y-116040047D01*
X120810051Y-116040046D01*
X120810049Y-116040045D01*
X120810050Y-116040045D01*
X120671963Y-115999500D01*
X120671961Y-115999500D01*
X120528039Y-115999500D01*
X120528036Y-115999500D01*
X120389949Y-116040045D01*
X120268873Y-116117856D01*
X120174623Y-116226626D01*
X120174622Y-116226628D01*
X120114834Y-116357543D01*
X120094353Y-116500000D01*
X119558886Y-116500000D01*
X119585165Y-116442457D01*
X119605647Y-116300000D01*
X119585165Y-116157543D01*
X119525377Y-116026627D01*
X119431128Y-115917857D01*
X119310053Y-115840047D01*
X119310051Y-115840046D01*
X119310049Y-115840045D01*
X119310050Y-115840045D01*
X119171963Y-115799500D01*
X119171961Y-115799500D01*
X119028039Y-115799500D01*
X119028036Y-115799500D01*
X118889949Y-115840045D01*
X118768873Y-115917856D01*
X118674623Y-116026626D01*
X118674622Y-116026628D01*
X118614834Y-116157543D01*
X118594353Y-116300000D01*
X113453342Y-116300000D01*
X113481128Y-116282143D01*
X113575377Y-116173373D01*
X113635165Y-116042457D01*
X113655647Y-115900000D01*
X113635165Y-115757543D01*
X113575377Y-115626627D01*
X113481128Y-115517857D01*
X113360053Y-115440047D01*
X113360051Y-115440046D01*
X113360049Y-115440045D01*
X113360050Y-115440045D01*
X113221963Y-115399500D01*
X113221961Y-115399500D01*
X113078039Y-115399500D01*
X113078036Y-115399500D01*
X112939949Y-115440045D01*
X112818873Y-115517856D01*
X112724623Y-115626626D01*
X112724622Y-115626628D01*
X112664834Y-115757543D01*
X112644353Y-115900000D01*
X109055647Y-115900000D01*
X109035165Y-115757543D01*
X108975377Y-115626627D01*
X108881128Y-115517857D01*
X108760053Y-115440047D01*
X108760051Y-115440046D01*
X108760049Y-115440045D01*
X108760050Y-115440045D01*
X108621963Y-115399500D01*
X108621961Y-115399500D01*
X108478039Y-115399500D01*
X108478036Y-115399500D01*
X108339949Y-115440045D01*
X108218873Y-115517856D01*
X108124623Y-115626626D01*
X108124622Y-115626628D01*
X108064834Y-115757543D01*
X108044353Y-115900000D01*
X107426065Y-115900000D01*
X107484129Y-115805249D01*
X107486511Y-115799500D01*
X107577411Y-115580045D01*
X107577413Y-115580041D01*
X107634319Y-115343012D01*
X107637704Y-115300000D01*
X133594353Y-115300000D01*
X133614834Y-115442456D01*
X133649269Y-115517856D01*
X133674623Y-115573373D01*
X133768872Y-115682143D01*
X133889947Y-115759953D01*
X133889950Y-115759954D01*
X133889949Y-115759954D01*
X133997107Y-115791417D01*
X134024633Y-115799500D01*
X134028036Y-115800499D01*
X134028038Y-115800500D01*
X134028039Y-115800500D01*
X134171962Y-115800500D01*
X134171962Y-115800499D01*
X134310053Y-115759953D01*
X134431128Y-115682143D01*
X134525377Y-115573373D01*
X134585165Y-115442457D01*
X134605647Y-115300000D01*
X134585165Y-115157543D01*
X134558886Y-115100000D01*
X135146556Y-115100000D01*
X135165680Y-115343006D01*
X135222588Y-115580045D01*
X135315868Y-115805245D01*
X135315870Y-115805248D01*
X135443233Y-116013085D01*
X135443239Y-116013094D01*
X135601546Y-116198448D01*
X135601551Y-116198453D01*
X135783424Y-116353787D01*
X135786909Y-116356763D01*
X135786914Y-116356766D01*
X135994751Y-116484129D01*
X135994754Y-116484131D01*
X136219954Y-116577411D01*
X136219959Y-116577413D01*
X136456988Y-116634319D01*
X136700000Y-116653444D01*
X136943012Y-116634319D01*
X137180041Y-116577413D01*
X137366933Y-116500000D01*
X137405245Y-116484131D01*
X137405246Y-116484130D01*
X137405249Y-116484129D01*
X137613091Y-116356763D01*
X137798451Y-116198451D01*
X137956763Y-116013091D01*
X138084129Y-115805249D01*
X138086511Y-115799500D01*
X138177411Y-115580045D01*
X138177413Y-115580041D01*
X138234319Y-115343012D01*
X138253444Y-115100000D01*
X138234319Y-114856988D01*
X138177413Y-114619959D01*
X138177411Y-114619954D01*
X138084131Y-114394754D01*
X138084129Y-114394751D01*
X137956766Y-114186914D01*
X137956760Y-114186905D01*
X137798453Y-114001551D01*
X137798448Y-114001546D01*
X137613094Y-113843239D01*
X137613085Y-113843233D01*
X137405248Y-113715870D01*
X137405245Y-113715868D01*
X137180045Y-113622588D01*
X137180041Y-113622587D01*
X136943012Y-113565681D01*
X136943009Y-113565680D01*
X136943006Y-113565680D01*
X136700000Y-113546556D01*
X136456993Y-113565680D01*
X136456989Y-113565680D01*
X136456988Y-113565681D01*
X136338473Y-113594134D01*
X136219954Y-113622588D01*
X135994754Y-113715868D01*
X135994751Y-113715870D01*
X135786914Y-113843233D01*
X135786905Y-113843239D01*
X135601551Y-114001546D01*
X135601546Y-114001551D01*
X135443239Y-114186905D01*
X135443233Y-114186914D01*
X135315870Y-114394751D01*
X135315868Y-114394754D01*
X135222588Y-114619954D01*
X135165680Y-114856993D01*
X135146556Y-115100000D01*
X134558886Y-115100000D01*
X134525377Y-115026627D01*
X134431128Y-114917857D01*
X134310053Y-114840047D01*
X134310051Y-114840046D01*
X134310049Y-114840045D01*
X134310050Y-114840045D01*
X134171963Y-114799500D01*
X134171961Y-114799500D01*
X134028039Y-114799500D01*
X134028036Y-114799500D01*
X133889949Y-114840045D01*
X133768873Y-114917856D01*
X133674623Y-115026626D01*
X133674622Y-115026628D01*
X133614834Y-115157543D01*
X133594353Y-115300000D01*
X107637704Y-115300000D01*
X107653444Y-115100000D01*
X107634319Y-114856988D01*
X107577413Y-114619959D01*
X107577411Y-114619954D01*
X107484131Y-114394754D01*
X107484129Y-114394751D01*
X107426065Y-114300000D01*
X110769353Y-114300000D01*
X110789834Y-114442456D01*
X110849622Y-114573371D01*
X110849623Y-114573373D01*
X110943872Y-114682143D01*
X111064947Y-114759953D01*
X111064950Y-114759954D01*
X111064949Y-114759954D01*
X111172107Y-114791417D01*
X111199633Y-114799500D01*
X111203036Y-114800499D01*
X111203038Y-114800500D01*
X111203039Y-114800500D01*
X111346962Y-114800500D01*
X111346962Y-114800499D01*
X111485053Y-114759953D01*
X111606128Y-114682143D01*
X111700377Y-114573373D01*
X111760165Y-114442457D01*
X111780647Y-114300000D01*
X112694353Y-114300000D01*
X112714834Y-114442456D01*
X112774622Y-114573371D01*
X112774623Y-114573373D01*
X112868872Y-114682143D01*
X112989947Y-114759953D01*
X112989950Y-114759954D01*
X112989949Y-114759954D01*
X113097107Y-114791417D01*
X113124633Y-114799500D01*
X113128036Y-114800499D01*
X113128038Y-114800500D01*
X113128039Y-114800500D01*
X113271962Y-114800500D01*
X113271962Y-114800499D01*
X113410053Y-114759953D01*
X113531128Y-114682143D01*
X113625377Y-114573373D01*
X113685165Y-114442457D01*
X113705647Y-114300000D01*
X113698458Y-114250000D01*
X117829353Y-114250000D01*
X117849834Y-114392456D01*
X117872669Y-114442456D01*
X117909623Y-114523373D01*
X118003872Y-114632143D01*
X118124947Y-114709953D01*
X118124950Y-114709954D01*
X118124949Y-114709954D01*
X118263036Y-114750499D01*
X118263038Y-114750500D01*
X118263039Y-114750500D01*
X118406962Y-114750500D01*
X118406962Y-114750499D01*
X118545053Y-114709953D01*
X118666128Y-114632143D01*
X118760377Y-114523373D01*
X118820165Y-114392457D01*
X118840647Y-114250000D01*
X118820165Y-114107543D01*
X118760377Y-113976627D01*
X118666128Y-113867857D01*
X118545053Y-113790047D01*
X118545051Y-113790046D01*
X118545049Y-113790045D01*
X118545050Y-113790045D01*
X118406963Y-113749500D01*
X118406961Y-113749500D01*
X118263039Y-113749500D01*
X118263036Y-113749500D01*
X118124949Y-113790045D01*
X118003873Y-113867856D01*
X117909623Y-113976626D01*
X117909622Y-113976628D01*
X117849834Y-114107543D01*
X117829353Y-114250000D01*
X113698458Y-114250000D01*
X113685165Y-114157543D01*
X113625377Y-114026627D01*
X113531128Y-113917857D01*
X113410053Y-113840047D01*
X113410051Y-113840046D01*
X113410049Y-113840045D01*
X113410050Y-113840045D01*
X113271963Y-113799500D01*
X113271961Y-113799500D01*
X113128039Y-113799500D01*
X113128036Y-113799500D01*
X112989949Y-113840045D01*
X112868873Y-113917856D01*
X112774623Y-114026626D01*
X112774622Y-114026628D01*
X112714834Y-114157543D01*
X112694353Y-114300000D01*
X111780647Y-114300000D01*
X111760165Y-114157543D01*
X111700377Y-114026627D01*
X111606128Y-113917857D01*
X111485053Y-113840047D01*
X111485051Y-113840046D01*
X111485049Y-113840045D01*
X111485050Y-113840045D01*
X111346963Y-113799500D01*
X111346961Y-113799500D01*
X111203039Y-113799500D01*
X111203036Y-113799500D01*
X111064949Y-113840045D01*
X110943873Y-113917856D01*
X110849623Y-114026626D01*
X110849622Y-114026628D01*
X110789834Y-114157543D01*
X110769353Y-114300000D01*
X107426065Y-114300000D01*
X107356766Y-114186914D01*
X107356760Y-114186905D01*
X107198453Y-114001551D01*
X107198448Y-114001546D01*
X107013094Y-113843239D01*
X107013085Y-113843233D01*
X106805248Y-113715870D01*
X106805245Y-113715868D01*
X106580045Y-113622588D01*
X106580041Y-113622587D01*
X106343012Y-113565681D01*
X106343009Y-113565680D01*
X106343006Y-113565680D01*
X106100000Y-113546556D01*
X105856993Y-113565680D01*
X105856989Y-113565680D01*
X105856988Y-113565681D01*
X105738473Y-113594134D01*
X105619954Y-113622588D01*
X105394754Y-113715868D01*
X105394751Y-113715870D01*
X105186914Y-113843233D01*
X105186905Y-113843239D01*
X105001551Y-114001546D01*
X105001546Y-114001551D01*
X104843239Y-114186905D01*
X104843233Y-114186914D01*
X104715870Y-114394751D01*
X104715868Y-114394754D01*
X104622588Y-114619954D01*
X104565680Y-114856993D01*
X104546556Y-115100000D01*
X102225500Y-115100000D01*
X102225500Y-112900000D01*
X109019353Y-112900000D01*
X109039834Y-113042456D01*
X109057959Y-113082143D01*
X109099623Y-113173373D01*
X109193872Y-113282143D01*
X109314947Y-113359953D01*
X109314950Y-113359954D01*
X109314949Y-113359954D01*
X109453036Y-113400499D01*
X109453038Y-113400500D01*
X109453039Y-113400500D01*
X109596962Y-113400500D01*
X109596962Y-113400499D01*
X109735053Y-113359953D01*
X109856128Y-113282143D01*
X109950377Y-113173373D01*
X109983886Y-113100000D01*
X115194353Y-113100000D01*
X115214834Y-113242456D01*
X115232959Y-113282143D01*
X115274623Y-113373373D01*
X115368872Y-113482143D01*
X115489947Y-113559953D01*
X115489950Y-113559954D01*
X115489949Y-113559954D01*
X115628036Y-113600499D01*
X115628038Y-113600500D01*
X115628039Y-113600500D01*
X115771962Y-113600500D01*
X115771962Y-113600499D01*
X115890545Y-113565681D01*
X115910050Y-113559954D01*
X115910050Y-113559953D01*
X115910053Y-113559953D01*
X116031128Y-113482143D01*
X116125377Y-113373373D01*
X116185165Y-113242457D01*
X116205647Y-113100000D01*
X116185165Y-112957543D01*
X116158886Y-112900000D01*
X116494353Y-112900000D01*
X116514834Y-113042456D01*
X116532959Y-113082143D01*
X116574623Y-113173373D01*
X116668872Y-113282143D01*
X116789947Y-113359953D01*
X116789950Y-113359954D01*
X116789949Y-113359954D01*
X116928036Y-113400499D01*
X116928038Y-113400500D01*
X116928039Y-113400500D01*
X117071962Y-113400500D01*
X117071962Y-113400499D01*
X117210053Y-113359953D01*
X117331128Y-113282143D01*
X117425377Y-113173373D01*
X117485165Y-113042457D01*
X117505647Y-112900000D01*
X117485165Y-112757543D01*
X117425377Y-112626627D01*
X117331128Y-112517857D01*
X117210053Y-112440047D01*
X117210051Y-112440046D01*
X117210049Y-112440045D01*
X117210050Y-112440045D01*
X117071963Y-112399500D01*
X117071961Y-112399500D01*
X116928039Y-112399500D01*
X116928036Y-112399500D01*
X116789949Y-112440045D01*
X116668873Y-112517856D01*
X116574623Y-112626626D01*
X116574622Y-112626628D01*
X116514834Y-112757543D01*
X116494353Y-112900000D01*
X116158886Y-112900000D01*
X116125377Y-112826627D01*
X116031128Y-112717857D01*
X115910053Y-112640047D01*
X115910051Y-112640046D01*
X115910049Y-112640045D01*
X115910050Y-112640045D01*
X115771963Y-112599500D01*
X115771961Y-112599500D01*
X115628039Y-112599500D01*
X115628036Y-112599500D01*
X115489949Y-112640045D01*
X115368873Y-112717856D01*
X115274623Y-112826626D01*
X115274622Y-112826628D01*
X115214834Y-112957543D01*
X115194353Y-113100000D01*
X109983886Y-113100000D01*
X110010165Y-113042457D01*
X110030647Y-112900000D01*
X110010165Y-112757543D01*
X109950377Y-112626627D01*
X109856128Y-112517857D01*
X109735053Y-112440047D01*
X109735051Y-112440046D01*
X109735049Y-112440045D01*
X109735050Y-112440045D01*
X109596963Y-112399500D01*
X109596961Y-112399500D01*
X109453039Y-112399500D01*
X109453036Y-112399500D01*
X109314949Y-112440045D01*
X109193873Y-112517856D01*
X109099623Y-112626626D01*
X109099622Y-112626628D01*
X109039834Y-112757543D01*
X109019353Y-112900000D01*
X102225500Y-112900000D01*
X102225500Y-111200000D01*
X106494353Y-111200000D01*
X106514834Y-111342456D01*
X106574621Y-111473369D01*
X106574623Y-111473373D01*
X106668872Y-111582143D01*
X106789947Y-111659953D01*
X106789950Y-111659954D01*
X106789949Y-111659954D01*
X106928036Y-111700499D01*
X106928038Y-111700500D01*
X106928039Y-111700500D01*
X107071962Y-111700500D01*
X107071962Y-111700499D01*
X107210053Y-111659953D01*
X107331128Y-111582143D01*
X107425377Y-111473373D01*
X107458886Y-111400000D01*
X110394353Y-111400000D01*
X110414834Y-111542456D01*
X110460504Y-111642457D01*
X110474623Y-111673373D01*
X110568872Y-111782143D01*
X110689947Y-111859953D01*
X110689950Y-111859954D01*
X110689949Y-111859954D01*
X110765520Y-111882143D01*
X110826336Y-111900000D01*
X110828036Y-111900499D01*
X110828038Y-111900500D01*
X110828039Y-111900500D01*
X110971962Y-111900500D01*
X110971962Y-111900499D01*
X111110053Y-111859953D01*
X111231128Y-111782143D01*
X111325377Y-111673373D01*
X111358886Y-111600000D01*
X113494353Y-111600000D01*
X113514834Y-111742456D01*
X113528953Y-111773371D01*
X113574623Y-111873373D01*
X113668872Y-111982143D01*
X113789947Y-112059953D01*
X113789950Y-112059954D01*
X113789949Y-112059954D01*
X113928036Y-112100499D01*
X113928038Y-112100500D01*
X113928039Y-112100500D01*
X114071962Y-112100500D01*
X114071962Y-112100499D01*
X114210053Y-112059953D01*
X114331128Y-111982143D01*
X114425377Y-111873373D01*
X114485165Y-111742457D01*
X114505647Y-111600000D01*
X114491269Y-111500000D01*
X116494353Y-111500000D01*
X116514834Y-111642456D01*
X116574622Y-111773371D01*
X116574623Y-111773373D01*
X116668872Y-111882143D01*
X116789947Y-111959953D01*
X116789950Y-111959954D01*
X116789949Y-111959954D01*
X116928036Y-112000499D01*
X116928038Y-112000500D01*
X116928039Y-112000500D01*
X117071962Y-112000500D01*
X117071962Y-112000499D01*
X117210053Y-111959953D01*
X117331128Y-111882143D01*
X117425377Y-111773373D01*
X117485165Y-111642457D01*
X117505647Y-111500000D01*
X123994353Y-111500000D01*
X124014834Y-111642456D01*
X124074622Y-111773371D01*
X124074623Y-111773373D01*
X124168872Y-111882143D01*
X124289947Y-111959953D01*
X124289950Y-111959954D01*
X124289949Y-111959954D01*
X124428036Y-112000499D01*
X124428038Y-112000500D01*
X124428039Y-112000500D01*
X124571962Y-112000500D01*
X124571962Y-112000499D01*
X124710053Y-111959953D01*
X124803342Y-111900000D01*
X128494353Y-111900000D01*
X128514834Y-112042456D01*
X128574622Y-112173371D01*
X128574623Y-112173373D01*
X128668872Y-112282143D01*
X128789947Y-112359953D01*
X128789950Y-112359954D01*
X128789949Y-112359954D01*
X128897107Y-112391417D01*
X128924633Y-112399500D01*
X128928036Y-112400499D01*
X128928038Y-112400500D01*
X128928039Y-112400500D01*
X129071962Y-112400500D01*
X129071962Y-112400499D01*
X129210053Y-112359953D01*
X129303342Y-112300000D01*
X135294353Y-112300000D01*
X135314834Y-112442456D01*
X135374622Y-112573371D01*
X135374623Y-112573373D01*
X135468872Y-112682143D01*
X135589947Y-112759953D01*
X135589950Y-112759954D01*
X135589949Y-112759954D01*
X135728036Y-112800499D01*
X135728038Y-112800500D01*
X135728039Y-112800500D01*
X135871962Y-112800500D01*
X135871962Y-112800499D01*
X136010053Y-112759953D01*
X136103342Y-112700000D01*
X138494353Y-112700000D01*
X138514834Y-112842456D01*
X138574622Y-112973371D01*
X138574623Y-112973373D01*
X138668872Y-113082143D01*
X138789947Y-113159953D01*
X138789950Y-113159954D01*
X138789949Y-113159954D01*
X138928036Y-113200499D01*
X138928038Y-113200500D01*
X138928039Y-113200500D01*
X139071962Y-113200500D01*
X139071962Y-113200499D01*
X139210053Y-113159953D01*
X139331128Y-113082143D01*
X139425377Y-112973373D01*
X139485165Y-112842457D01*
X139505647Y-112700000D01*
X139485165Y-112557543D01*
X139425377Y-112426627D01*
X139331128Y-112317857D01*
X139210053Y-112240047D01*
X139210051Y-112240046D01*
X139210049Y-112240045D01*
X139210050Y-112240045D01*
X139071963Y-112199500D01*
X139071961Y-112199500D01*
X138928039Y-112199500D01*
X138928036Y-112199500D01*
X138789949Y-112240045D01*
X138668873Y-112317856D01*
X138574623Y-112426626D01*
X138574622Y-112426628D01*
X138514834Y-112557543D01*
X138494353Y-112700000D01*
X136103342Y-112700000D01*
X136131128Y-112682143D01*
X136225377Y-112573373D01*
X136285165Y-112442457D01*
X136305647Y-112300000D01*
X136285165Y-112157543D01*
X136225377Y-112026627D01*
X136131128Y-111917857D01*
X136010053Y-111840047D01*
X136010051Y-111840046D01*
X136010049Y-111840045D01*
X136010050Y-111840045D01*
X135871963Y-111799500D01*
X135871961Y-111799500D01*
X135728039Y-111799500D01*
X135728036Y-111799500D01*
X135589949Y-111840045D01*
X135468873Y-111917856D01*
X135374623Y-112026626D01*
X135374622Y-112026628D01*
X135314834Y-112157543D01*
X135294353Y-112300000D01*
X129303342Y-112300000D01*
X129331128Y-112282143D01*
X129425377Y-112173373D01*
X129485165Y-112042457D01*
X129505647Y-111900000D01*
X129485165Y-111757543D01*
X129425377Y-111626627D01*
X129331128Y-111517857D01*
X129210053Y-111440047D01*
X129210051Y-111440046D01*
X129210049Y-111440045D01*
X129210050Y-111440045D01*
X129071963Y-111399500D01*
X129071961Y-111399500D01*
X128928039Y-111399500D01*
X128928036Y-111399500D01*
X128789949Y-111440045D01*
X128668873Y-111517856D01*
X128574623Y-111626626D01*
X128574622Y-111626628D01*
X128514834Y-111757543D01*
X128494353Y-111900000D01*
X124803342Y-111900000D01*
X124831128Y-111882143D01*
X124925377Y-111773373D01*
X124985165Y-111642457D01*
X125005647Y-111500000D01*
X124999205Y-111455194D01*
X125009149Y-111386035D01*
X125022837Y-111370237D01*
X125011014Y-111366766D01*
X124978949Y-111329760D01*
X125177161Y-111329760D01*
X125188983Y-111333232D01*
X125234737Y-111386036D01*
X125274620Y-111473369D01*
X125274623Y-111473373D01*
X125368872Y-111582143D01*
X125489947Y-111659953D01*
X125489950Y-111659954D01*
X125489949Y-111659954D01*
X125628036Y-111700499D01*
X125628038Y-111700500D01*
X125628039Y-111700500D01*
X125771962Y-111700500D01*
X125771962Y-111700499D01*
X125910053Y-111659953D01*
X126031128Y-111582143D01*
X126125377Y-111473373D01*
X126185165Y-111342457D01*
X126205647Y-111200000D01*
X126185165Y-111057543D01*
X126125377Y-110926627D01*
X126031128Y-110817857D01*
X126003342Y-110800000D01*
X138294353Y-110800000D01*
X138314834Y-110942456D01*
X138374622Y-111073371D01*
X138374623Y-111073373D01*
X138468872Y-111182143D01*
X138589947Y-111259953D01*
X138589950Y-111259954D01*
X138589949Y-111259954D01*
X138728036Y-111300499D01*
X138728038Y-111300500D01*
X138728039Y-111300500D01*
X138871962Y-111300500D01*
X138871962Y-111300499D01*
X139010053Y-111259953D01*
X139131128Y-111182143D01*
X139225377Y-111073373D01*
X139285165Y-110942457D01*
X139305647Y-110800000D01*
X139285165Y-110657543D01*
X139225377Y-110526627D01*
X139131128Y-110417857D01*
X139010053Y-110340047D01*
X139010051Y-110340046D01*
X139010049Y-110340045D01*
X139010050Y-110340045D01*
X138871963Y-110299500D01*
X138871961Y-110299500D01*
X138728039Y-110299500D01*
X138728036Y-110299500D01*
X138589949Y-110340045D01*
X138468873Y-110417856D01*
X138374623Y-110526626D01*
X138374622Y-110526628D01*
X138314834Y-110657543D01*
X138294353Y-110800000D01*
X126003342Y-110800000D01*
X125910053Y-110740047D01*
X125910051Y-110740046D01*
X125910049Y-110740045D01*
X125910050Y-110740045D01*
X125771963Y-110699500D01*
X125771961Y-110699500D01*
X125628039Y-110699500D01*
X125628036Y-110699500D01*
X125489949Y-110740045D01*
X125368873Y-110817856D01*
X125274623Y-110926626D01*
X125274622Y-110926628D01*
X125214834Y-111057543D01*
X125194353Y-111200000D01*
X125194353Y-111200002D01*
X125200794Y-111244807D01*
X125190849Y-111313966D01*
X125177161Y-111329760D01*
X124978949Y-111329760D01*
X124965264Y-111313966D01*
X124925377Y-111226627D01*
X124831128Y-111117857D01*
X124710053Y-111040047D01*
X124710051Y-111040046D01*
X124710049Y-111040045D01*
X124710050Y-111040045D01*
X124571963Y-110999500D01*
X124571961Y-110999500D01*
X124428039Y-110999500D01*
X124428036Y-110999500D01*
X124289949Y-111040045D01*
X124168873Y-111117856D01*
X124074623Y-111226626D01*
X124074622Y-111226628D01*
X124014834Y-111357543D01*
X123994353Y-111500000D01*
X117505647Y-111500000D01*
X117485165Y-111357543D01*
X117425377Y-111226627D01*
X117331128Y-111117857D01*
X117210053Y-111040047D01*
X117210051Y-111040046D01*
X117210049Y-111040045D01*
X117210050Y-111040045D01*
X117071963Y-110999500D01*
X117071961Y-110999500D01*
X116928039Y-110999500D01*
X116928036Y-110999500D01*
X116789949Y-111040045D01*
X116668873Y-111117856D01*
X116574623Y-111226626D01*
X116574622Y-111226628D01*
X116514834Y-111357543D01*
X116494353Y-111500000D01*
X114491269Y-111500000D01*
X114485165Y-111457543D01*
X114425377Y-111326627D01*
X114331128Y-111217857D01*
X114210053Y-111140047D01*
X114210051Y-111140046D01*
X114210049Y-111140045D01*
X114210050Y-111140045D01*
X114071963Y-111099500D01*
X114071961Y-111099500D01*
X113928039Y-111099500D01*
X113928036Y-111099500D01*
X113789949Y-111140045D01*
X113668873Y-111217856D01*
X113574623Y-111326626D01*
X113574622Y-111326628D01*
X113514834Y-111457543D01*
X113494353Y-111600000D01*
X111358886Y-111600000D01*
X111385165Y-111542457D01*
X111405647Y-111400000D01*
X111385165Y-111257543D01*
X111325377Y-111126627D01*
X111231128Y-111017857D01*
X111110053Y-110940047D01*
X111110051Y-110940046D01*
X111110049Y-110940045D01*
X111110050Y-110940045D01*
X110971963Y-110899500D01*
X110971961Y-110899500D01*
X110828039Y-110899500D01*
X110828036Y-110899500D01*
X110689949Y-110940045D01*
X110568873Y-111017856D01*
X110474623Y-111126626D01*
X110474622Y-111126628D01*
X110414834Y-111257543D01*
X110394353Y-111400000D01*
X107458886Y-111400000D01*
X107485165Y-111342457D01*
X107505647Y-111200000D01*
X107485165Y-111057543D01*
X107425377Y-110926627D01*
X107331128Y-110817857D01*
X107210053Y-110740047D01*
X107210051Y-110740046D01*
X107210049Y-110740045D01*
X107210050Y-110740045D01*
X107071963Y-110699500D01*
X107071961Y-110699500D01*
X106928039Y-110699500D01*
X106928036Y-110699500D01*
X106789949Y-110740045D01*
X106668873Y-110817856D01*
X106574623Y-110926626D01*
X106574622Y-110926628D01*
X106514834Y-111057543D01*
X106494353Y-111200000D01*
X102225500Y-111200000D01*
X102225500Y-110000000D01*
X120694353Y-110000000D01*
X120714834Y-110142456D01*
X120774622Y-110273371D01*
X120774623Y-110273373D01*
X120868872Y-110382143D01*
X120989947Y-110459953D01*
X120989950Y-110459954D01*
X120989949Y-110459954D01*
X121128036Y-110500499D01*
X121128038Y-110500500D01*
X121128039Y-110500500D01*
X121271962Y-110500500D01*
X121271962Y-110500499D01*
X121410053Y-110459953D01*
X121531128Y-110382143D01*
X121625377Y-110273373D01*
X121685165Y-110142457D01*
X121705647Y-110000000D01*
X121685165Y-109857543D01*
X121625377Y-109726627D01*
X121531128Y-109617857D01*
X121410053Y-109540047D01*
X121410051Y-109540046D01*
X121410049Y-109540045D01*
X121410050Y-109540045D01*
X121271963Y-109499500D01*
X121271961Y-109499500D01*
X121128039Y-109499500D01*
X121128036Y-109499500D01*
X120989949Y-109540045D01*
X120868873Y-109617856D01*
X120774623Y-109726626D01*
X120774622Y-109726628D01*
X120714834Y-109857543D01*
X120694353Y-110000000D01*
X102225500Y-110000000D01*
X102225500Y-108150000D01*
X111294353Y-108150000D01*
X111314834Y-108292456D01*
X111363720Y-108399500D01*
X111374623Y-108423373D01*
X111468872Y-108532143D01*
X111589947Y-108609953D01*
X111589950Y-108609954D01*
X111589949Y-108609954D01*
X111728036Y-108650499D01*
X111728038Y-108650500D01*
X111728039Y-108650500D01*
X111871962Y-108650500D01*
X111871962Y-108650499D01*
X112010053Y-108609953D01*
X112033320Y-108595000D01*
X114214353Y-108595000D01*
X114234834Y-108737456D01*
X114271552Y-108817856D01*
X114294623Y-108868373D01*
X114388872Y-108977143D01*
X114509947Y-109054953D01*
X114509950Y-109054954D01*
X114509949Y-109054954D01*
X114648036Y-109095499D01*
X114648038Y-109095500D01*
X114648039Y-109095500D01*
X114791962Y-109095500D01*
X114791962Y-109095499D01*
X114930053Y-109054953D01*
X115051128Y-108977143D01*
X115145377Y-108868373D01*
X115205165Y-108737457D01*
X115225647Y-108595000D01*
X115205165Y-108452543D01*
X115145377Y-108321627D01*
X115051128Y-108212857D01*
X114930053Y-108135047D01*
X114930051Y-108135046D01*
X114930049Y-108135045D01*
X114930050Y-108135045D01*
X114791963Y-108094500D01*
X114791961Y-108094500D01*
X114648039Y-108094500D01*
X114648036Y-108094500D01*
X114509949Y-108135045D01*
X114388873Y-108212856D01*
X114294623Y-108321626D01*
X114294622Y-108321628D01*
X114234834Y-108452543D01*
X114214353Y-108595000D01*
X112033320Y-108595000D01*
X112131128Y-108532143D01*
X112225377Y-108423373D01*
X112285165Y-108292457D01*
X112305647Y-108150000D01*
X112285165Y-108007543D01*
X112281720Y-108000000D01*
X117894353Y-108000000D01*
X117914834Y-108142456D01*
X117967535Y-108257853D01*
X117974623Y-108273373D01*
X118068872Y-108382143D01*
X118189947Y-108459953D01*
X118189950Y-108459954D01*
X118189949Y-108459954D01*
X118328036Y-108500499D01*
X118328038Y-108500500D01*
X118339275Y-108500500D01*
X118406314Y-108520185D01*
X118452069Y-108572989D01*
X118462013Y-108642147D01*
X118452069Y-108676011D01*
X118414835Y-108757541D01*
X118414834Y-108757542D01*
X118394353Y-108900000D01*
X118414834Y-109042456D01*
X118439059Y-109095500D01*
X118474623Y-109173373D01*
X118568872Y-109282143D01*
X118689947Y-109359953D01*
X118689950Y-109359954D01*
X118689949Y-109359954D01*
X118828036Y-109400499D01*
X118828038Y-109400500D01*
X118828039Y-109400500D01*
X118971962Y-109400500D01*
X118971962Y-109400499D01*
X119110053Y-109359953D01*
X119231128Y-109282143D01*
X119302305Y-109200000D01*
X119685442Y-109200000D01*
X119705923Y-109342456D01*
X119765711Y-109473371D01*
X119765712Y-109473373D01*
X119859961Y-109582143D01*
X119981036Y-109659953D01*
X119981039Y-109659954D01*
X119981038Y-109659954D01*
X120119125Y-109700499D01*
X120119127Y-109700500D01*
X120119128Y-109700500D01*
X120263051Y-109700500D01*
X120263051Y-109700499D01*
X120401142Y-109659953D01*
X120522217Y-109582143D01*
X120616466Y-109473373D01*
X120676254Y-109342457D01*
X120696736Y-109200000D01*
X120676254Y-109057543D01*
X120616466Y-108926627D01*
X120522217Y-108817857D01*
X120401142Y-108740047D01*
X120401140Y-108740046D01*
X120401138Y-108740045D01*
X120401139Y-108740045D01*
X120263052Y-108699500D01*
X120263050Y-108699500D01*
X120119128Y-108699500D01*
X120119125Y-108699500D01*
X119981038Y-108740045D01*
X119859962Y-108817856D01*
X119765712Y-108926626D01*
X119765711Y-108926628D01*
X119705923Y-109057543D01*
X119685442Y-109200000D01*
X119302305Y-109200000D01*
X119325377Y-109173373D01*
X119385165Y-109042457D01*
X119405647Y-108900000D01*
X119385165Y-108757543D01*
X119325377Y-108626627D01*
X119231128Y-108517857D01*
X119110053Y-108440047D01*
X119110051Y-108440046D01*
X119110049Y-108440045D01*
X119110050Y-108440045D01*
X118973666Y-108400000D01*
X138394353Y-108400000D01*
X138414834Y-108542456D01*
X138453275Y-108626628D01*
X138474623Y-108673373D01*
X138568872Y-108782143D01*
X138689947Y-108859953D01*
X138689950Y-108859954D01*
X138689949Y-108859954D01*
X138797107Y-108891417D01*
X138826336Y-108900000D01*
X138828036Y-108900499D01*
X138828038Y-108900500D01*
X138828039Y-108900500D01*
X138971962Y-108900500D01*
X138971962Y-108900499D01*
X139110053Y-108859953D01*
X139231128Y-108782143D01*
X139325377Y-108673373D01*
X139385165Y-108542457D01*
X139405647Y-108400000D01*
X139385165Y-108257543D01*
X139325377Y-108126627D01*
X139231128Y-108017857D01*
X139110053Y-107940047D01*
X139110051Y-107940046D01*
X139110049Y-107940045D01*
X139110050Y-107940045D01*
X138971963Y-107899500D01*
X138971961Y-107899500D01*
X138828039Y-107899500D01*
X138828036Y-107899500D01*
X138689949Y-107940045D01*
X138568873Y-108017856D01*
X138474623Y-108126626D01*
X138474622Y-108126628D01*
X138414834Y-108257543D01*
X138394353Y-108400000D01*
X118973666Y-108400000D01*
X118971963Y-108399500D01*
X118971961Y-108399500D01*
X118960725Y-108399500D01*
X118893686Y-108379815D01*
X118847931Y-108327011D01*
X118837987Y-108257853D01*
X118847931Y-108223989D01*
X118881720Y-108150000D01*
X118885165Y-108142457D01*
X118905647Y-108000000D01*
X118885165Y-107857543D01*
X118825377Y-107726627D01*
X118731128Y-107617857D01*
X118610053Y-107540047D01*
X118610051Y-107540046D01*
X118610049Y-107540045D01*
X118610050Y-107540045D01*
X118471963Y-107499500D01*
X118471961Y-107499500D01*
X118328039Y-107499500D01*
X118328036Y-107499500D01*
X118189949Y-107540045D01*
X118068873Y-107617856D01*
X117974623Y-107726626D01*
X117974622Y-107726628D01*
X117914834Y-107857543D01*
X117894353Y-108000000D01*
X112281720Y-108000000D01*
X112225377Y-107876627D01*
X112131128Y-107767857D01*
X112010053Y-107690047D01*
X112010051Y-107690046D01*
X112010049Y-107690045D01*
X112010050Y-107690045D01*
X111871963Y-107649500D01*
X111871961Y-107649500D01*
X111728039Y-107649500D01*
X111728036Y-107649500D01*
X111589949Y-107690045D01*
X111468873Y-107767856D01*
X111374623Y-107876626D01*
X111374622Y-107876628D01*
X111314834Y-108007543D01*
X111294353Y-108150000D01*
X102225500Y-108150000D01*
X102225500Y-107200000D01*
X120394353Y-107200000D01*
X120414834Y-107342456D01*
X120452690Y-107425347D01*
X120474623Y-107473373D01*
X120568872Y-107582143D01*
X120689947Y-107659953D01*
X120689950Y-107659954D01*
X120689949Y-107659954D01*
X120792432Y-107690045D01*
X120805806Y-107693972D01*
X120828036Y-107700499D01*
X120828038Y-107700500D01*
X120828039Y-107700500D01*
X120971962Y-107700500D01*
X120971962Y-107700499D01*
X121110053Y-107659953D01*
X121231128Y-107582143D01*
X121231128Y-107582142D01*
X121238589Y-107577348D01*
X121240361Y-107580105D01*
X121289342Y-107557719D01*
X121358503Y-107567641D01*
X121400738Y-107599246D01*
X121404377Y-107603446D01*
X121525452Y-107681256D01*
X121525455Y-107681257D01*
X121525454Y-107681257D01*
X121663541Y-107721802D01*
X121663543Y-107721803D01*
X121663544Y-107721803D01*
X121807467Y-107721803D01*
X121807467Y-107721802D01*
X121945558Y-107681256D01*
X122066633Y-107603446D01*
X122111561Y-107551595D01*
X122170336Y-107513821D01*
X122240206Y-107513820D01*
X122272311Y-107528482D01*
X122292136Y-107541223D01*
X122315078Y-107555967D01*
X122453166Y-107596512D01*
X122453168Y-107596513D01*
X122453169Y-107596513D01*
X122597092Y-107596513D01*
X122597092Y-107596512D01*
X122735183Y-107555966D01*
X122856258Y-107478156D01*
X122899744Y-107427969D01*
X122958520Y-107390196D01*
X123028390Y-107390196D01*
X123076713Y-107421251D01*
X123078195Y-107419541D01*
X123084891Y-107425342D01*
X123084895Y-107425347D01*
X123205970Y-107503157D01*
X123205973Y-107503158D01*
X123205972Y-107503158D01*
X123290783Y-107528060D01*
X123331600Y-107540045D01*
X123344059Y-107543703D01*
X123344061Y-107543704D01*
X123344062Y-107543704D01*
X123487985Y-107543704D01*
X123487985Y-107543703D01*
X123626076Y-107503157D01*
X123647675Y-107489275D01*
X123714714Y-107469590D01*
X123781754Y-107489274D01*
X123808427Y-107512385D01*
X123868872Y-107582143D01*
X123989947Y-107659953D01*
X123989950Y-107659954D01*
X123989949Y-107659954D01*
X124092432Y-107690045D01*
X124105806Y-107693972D01*
X124128036Y-107700499D01*
X124128038Y-107700500D01*
X124128039Y-107700500D01*
X124271962Y-107700500D01*
X124271962Y-107700499D01*
X124410053Y-107659953D01*
X124531128Y-107582143D01*
X124577990Y-107528061D01*
X124636768Y-107490286D01*
X124706637Y-107490286D01*
X124765415Y-107528059D01*
X124806622Y-107575615D01*
X124927697Y-107653425D01*
X124927700Y-107653426D01*
X124927699Y-107653426D01*
X125065786Y-107693971D01*
X125065788Y-107693972D01*
X125065789Y-107693972D01*
X125209712Y-107693972D01*
X125209712Y-107693971D01*
X125325567Y-107659954D01*
X125347800Y-107653426D01*
X125347800Y-107653425D01*
X125347803Y-107653425D01*
X125468878Y-107575615D01*
X125563127Y-107466845D01*
X125622915Y-107335929D01*
X125643397Y-107193472D01*
X125622915Y-107051015D01*
X125563127Y-106920099D01*
X125468878Y-106811329D01*
X125347803Y-106733519D01*
X125347801Y-106733518D01*
X125347799Y-106733517D01*
X125347800Y-106733517D01*
X125209713Y-106692972D01*
X125209711Y-106692972D01*
X125065789Y-106692972D01*
X125065786Y-106692972D01*
X124927699Y-106733517D01*
X124806622Y-106811328D01*
X124759758Y-106865412D01*
X124700979Y-106903186D01*
X124631110Y-106903185D01*
X124572333Y-106865411D01*
X124531128Y-106817857D01*
X124410053Y-106740047D01*
X124410051Y-106740046D01*
X124410049Y-106740045D01*
X124410050Y-106740045D01*
X124271963Y-106699500D01*
X124271961Y-106699500D01*
X124128039Y-106699500D01*
X124128036Y-106699500D01*
X123989949Y-106740045D01*
X123989947Y-106740046D01*
X123968343Y-106753930D01*
X123901303Y-106773613D01*
X123834264Y-106753927D01*
X123807593Y-106730815D01*
X123747152Y-106661062D01*
X123747151Y-106661061D01*
X123626076Y-106583251D01*
X123626074Y-106583250D01*
X123626072Y-106583249D01*
X123626073Y-106583249D01*
X123487986Y-106542704D01*
X123487984Y-106542704D01*
X123344062Y-106542704D01*
X123344059Y-106542704D01*
X123205972Y-106583249D01*
X123084895Y-106661060D01*
X123041408Y-106711247D01*
X122982629Y-106749021D01*
X122912760Y-106749020D01*
X122864439Y-106717965D01*
X122862958Y-106719676D01*
X122856261Y-106713873D01*
X122856258Y-106713870D01*
X122735183Y-106636060D01*
X122735181Y-106636059D01*
X122735179Y-106636058D01*
X122735180Y-106636058D01*
X122597093Y-106595513D01*
X122597091Y-106595513D01*
X122453169Y-106595513D01*
X122453166Y-106595513D01*
X122315079Y-106636058D01*
X122194003Y-106713869D01*
X122149074Y-106765720D01*
X122090295Y-106803494D01*
X122020426Y-106803494D01*
X121988322Y-106788832D01*
X121945560Y-106761350D01*
X121945555Y-106761348D01*
X121807468Y-106720803D01*
X121807466Y-106720803D01*
X121663544Y-106720803D01*
X121663541Y-106720803D01*
X121525454Y-106761348D01*
X121396916Y-106843955D01*
X121395151Y-106841208D01*
X121346069Y-106863597D01*
X121276915Y-106853622D01*
X121234765Y-106822055D01*
X121231128Y-106817857D01*
X121110053Y-106740047D01*
X121110051Y-106740046D01*
X121110049Y-106740045D01*
X121110050Y-106740045D01*
X120971963Y-106699500D01*
X120971961Y-106699500D01*
X120828039Y-106699500D01*
X120828036Y-106699500D01*
X120689949Y-106740045D01*
X120568873Y-106817856D01*
X120474623Y-106926626D01*
X120474622Y-106926628D01*
X120414834Y-107057543D01*
X120394353Y-107200000D01*
X102225500Y-107200000D01*
X102225500Y-106300000D01*
X138594353Y-106300000D01*
X138614834Y-106442456D01*
X138660617Y-106542704D01*
X138674623Y-106573373D01*
X138768872Y-106682143D01*
X138889947Y-106759953D01*
X138889950Y-106759954D01*
X138889949Y-106759954D01*
X139028036Y-106800499D01*
X139028038Y-106800500D01*
X139028039Y-106800500D01*
X139171962Y-106800500D01*
X139171962Y-106800499D01*
X139290412Y-106765720D01*
X139310050Y-106759954D01*
X139310050Y-106759953D01*
X139310053Y-106759953D01*
X139431128Y-106682143D01*
X139525377Y-106573373D01*
X139585165Y-106442457D01*
X139605647Y-106300000D01*
X139585165Y-106157543D01*
X139525377Y-106026627D01*
X139431128Y-105917857D01*
X139310053Y-105840047D01*
X139310051Y-105840046D01*
X139310049Y-105840045D01*
X139310050Y-105840045D01*
X139171963Y-105799500D01*
X139171961Y-105799500D01*
X139028039Y-105799500D01*
X139028036Y-105799500D01*
X138889949Y-105840045D01*
X138768873Y-105917856D01*
X138674623Y-106026626D01*
X138674622Y-106026628D01*
X138614834Y-106157543D01*
X138594353Y-106300000D01*
X102225500Y-106300000D01*
X102225500Y-105500000D01*
X104894353Y-105500000D01*
X104914834Y-105642456D01*
X104960504Y-105742457D01*
X104974623Y-105773373D01*
X105068872Y-105882143D01*
X105189947Y-105959953D01*
X105189950Y-105959954D01*
X105189949Y-105959954D01*
X105328036Y-106000499D01*
X105328038Y-106000500D01*
X105328039Y-106000500D01*
X105471962Y-106000500D01*
X105471962Y-106000499D01*
X105610053Y-105959953D01*
X105731128Y-105882143D01*
X105825377Y-105773373D01*
X105885165Y-105642457D01*
X105905647Y-105500000D01*
X105885165Y-105357543D01*
X105825377Y-105226627D01*
X105731128Y-105117857D01*
X105610053Y-105040047D01*
X105610051Y-105040046D01*
X105610049Y-105040045D01*
X105610050Y-105040045D01*
X105471963Y-104999500D01*
X105471961Y-104999500D01*
X105328039Y-104999500D01*
X105328036Y-104999500D01*
X105189949Y-105040045D01*
X105068873Y-105117856D01*
X104974623Y-105226626D01*
X104974622Y-105226628D01*
X104914834Y-105357543D01*
X104894353Y-105500000D01*
X102225500Y-105500000D01*
X102225500Y-103800000D01*
X105294353Y-103800000D01*
X105314834Y-103942456D01*
X105368494Y-104059953D01*
X105374623Y-104073373D01*
X105468872Y-104182143D01*
X105589947Y-104259953D01*
X105589950Y-104259954D01*
X105589949Y-104259954D01*
X105728036Y-104300499D01*
X105728038Y-104300500D01*
X105728039Y-104300500D01*
X105871962Y-104300500D01*
X105871962Y-104300499D01*
X106010053Y-104259953D01*
X106131128Y-104182143D01*
X106225377Y-104073373D01*
X106236051Y-104050000D01*
X110494353Y-104050000D01*
X110514834Y-104192456D01*
X110564177Y-104300499D01*
X110574623Y-104323373D01*
X110668872Y-104432143D01*
X110778052Y-104502309D01*
X110823806Y-104555111D01*
X110833750Y-104624269D01*
X110829990Y-104641555D01*
X110829737Y-104642415D01*
X110809255Y-104784875D01*
X110829736Y-104927331D01*
X110862695Y-104999500D01*
X110889525Y-105058248D01*
X110923365Y-105097302D01*
X110927987Y-105102636D01*
X110957011Y-105166192D01*
X110947067Y-105235350D01*
X110927987Y-105265039D01*
X110874625Y-105326622D01*
X110874622Y-105326628D01*
X110814834Y-105457543D01*
X110794353Y-105600000D01*
X110814834Y-105742456D01*
X110860504Y-105842457D01*
X110874623Y-105873373D01*
X110968872Y-105982143D01*
X111089947Y-106059953D01*
X111089950Y-106059954D01*
X111089949Y-106059954D01*
X111228036Y-106100499D01*
X111228038Y-106100500D01*
X111228039Y-106100500D01*
X111371962Y-106100500D01*
X111371962Y-106100499D01*
X111510053Y-106059953D01*
X111561910Y-106026627D01*
X111631128Y-105982143D01*
X111680094Y-105925630D01*
X111683181Y-105922320D01*
X111690682Y-105914850D01*
X111692826Y-105911653D01*
X111697454Y-105905597D01*
X111725377Y-105873373D01*
X111735820Y-105850505D01*
X111745633Y-105832946D01*
X112011450Y-105436759D01*
X112011453Y-105436752D01*
X112013320Y-105433970D01*
X112028605Y-105415380D01*
X112082170Y-105361817D01*
X112143494Y-105328333D01*
X112169850Y-105325500D01*
X113227858Y-105325500D01*
X113294897Y-105345185D01*
X113340652Y-105397989D01*
X113350596Y-105467147D01*
X113340652Y-105501012D01*
X113314834Y-105557543D01*
X113294353Y-105700000D01*
X113314834Y-105842456D01*
X113368494Y-105959953D01*
X113374623Y-105973373D01*
X113468872Y-106082143D01*
X113589947Y-106159953D01*
X113589950Y-106159954D01*
X113589949Y-106159954D01*
X113728036Y-106200499D01*
X113728038Y-106200500D01*
X113728039Y-106200500D01*
X113871962Y-106200500D01*
X113871962Y-106200499D01*
X114010053Y-106159953D01*
X114131128Y-106082143D01*
X114225377Y-105973373D01*
X114285165Y-105842457D01*
X114305647Y-105700000D01*
X129744353Y-105700000D01*
X129764834Y-105842456D01*
X129818494Y-105959953D01*
X129824623Y-105973373D01*
X129918872Y-106082143D01*
X130039947Y-106159953D01*
X130039950Y-106159954D01*
X130039949Y-106159954D01*
X130178036Y-106200499D01*
X130178038Y-106200500D01*
X130178039Y-106200500D01*
X130321962Y-106200500D01*
X130321962Y-106200499D01*
X130460053Y-106159953D01*
X130581128Y-106082143D01*
X130675377Y-105973373D01*
X130735165Y-105842457D01*
X130755647Y-105700000D01*
X130735165Y-105557543D01*
X130675377Y-105426627D01*
X130581128Y-105317857D01*
X130460053Y-105240047D01*
X130460051Y-105240046D01*
X130460049Y-105240045D01*
X130460050Y-105240045D01*
X130321963Y-105199500D01*
X130321961Y-105199500D01*
X130178039Y-105199500D01*
X130178036Y-105199500D01*
X130039949Y-105240045D01*
X129918873Y-105317856D01*
X129918872Y-105317856D01*
X129918872Y-105317857D01*
X129918068Y-105318785D01*
X129824623Y-105426626D01*
X129824622Y-105426628D01*
X129764834Y-105557543D01*
X129744353Y-105700000D01*
X114305647Y-105700000D01*
X114285165Y-105557543D01*
X114259348Y-105501012D01*
X114249404Y-105431853D01*
X114278429Y-105368297D01*
X114337207Y-105330523D01*
X114372142Y-105325500D01*
X114846682Y-105325500D01*
X114852085Y-105325735D01*
X114892411Y-105329264D01*
X114931544Y-105318777D01*
X114936766Y-105317619D01*
X114976649Y-105310588D01*
X114976654Y-105310584D01*
X114981703Y-105308747D01*
X114998428Y-105301819D01*
X115003285Y-105299554D01*
X115003288Y-105299554D01*
X115036445Y-105276335D01*
X115040994Y-105273438D01*
X115076059Y-105253194D01*
X115102085Y-105222176D01*
X115105726Y-105218202D01*
X116423928Y-103900000D01*
X119669353Y-103900000D01*
X119689834Y-104042456D01*
X119749622Y-104173371D01*
X119749623Y-104173373D01*
X119843872Y-104282143D01*
X119964947Y-104359953D01*
X119964950Y-104359954D01*
X119964949Y-104359954D01*
X120103036Y-104400499D01*
X120103038Y-104400500D01*
X120103039Y-104400500D01*
X120246962Y-104400500D01*
X120246962Y-104400499D01*
X120385053Y-104359953D01*
X120506128Y-104282143D01*
X120577305Y-104200000D01*
X138594353Y-104200000D01*
X138614834Y-104342456D01*
X138674622Y-104473371D01*
X138674623Y-104473373D01*
X138768872Y-104582143D01*
X138889947Y-104659953D01*
X138889950Y-104659954D01*
X138889949Y-104659954D01*
X139028036Y-104700499D01*
X139028038Y-104700500D01*
X139028039Y-104700500D01*
X139171962Y-104700500D01*
X139171962Y-104700499D01*
X139310053Y-104659953D01*
X139431128Y-104582143D01*
X139525377Y-104473373D01*
X139585165Y-104342457D01*
X139605647Y-104200000D01*
X139585165Y-104057543D01*
X139525377Y-103926627D01*
X139431128Y-103817857D01*
X139310053Y-103740047D01*
X139310051Y-103740046D01*
X139310049Y-103740045D01*
X139310050Y-103740045D01*
X139171963Y-103699500D01*
X139171961Y-103699500D01*
X139028039Y-103699500D01*
X139028036Y-103699500D01*
X138889949Y-103740045D01*
X138768873Y-103817856D01*
X138674623Y-103926626D01*
X138674622Y-103926628D01*
X138614834Y-104057543D01*
X138594353Y-104200000D01*
X120577305Y-104200000D01*
X120600377Y-104173373D01*
X120660165Y-104042457D01*
X120680647Y-103900000D01*
X120660165Y-103757543D01*
X120600377Y-103626627D01*
X120577305Y-103600000D01*
X122894353Y-103600000D01*
X122914834Y-103742456D01*
X122941114Y-103800000D01*
X122974623Y-103873373D01*
X123068872Y-103982143D01*
X123189947Y-104059953D01*
X123189950Y-104059954D01*
X123189949Y-104059954D01*
X123328036Y-104100499D01*
X123328038Y-104100500D01*
X123328039Y-104100500D01*
X123471962Y-104100500D01*
X123471962Y-104100499D01*
X123610053Y-104059953D01*
X123731128Y-103982143D01*
X123825377Y-103873373D01*
X123885165Y-103742457D01*
X123905647Y-103600000D01*
X123885165Y-103457543D01*
X123825377Y-103326627D01*
X123731128Y-103217857D01*
X123610053Y-103140047D01*
X123610051Y-103140046D01*
X123610049Y-103140045D01*
X123610050Y-103140045D01*
X123471963Y-103099500D01*
X123471961Y-103099500D01*
X123328039Y-103099500D01*
X123328036Y-103099500D01*
X123189949Y-103140045D01*
X123068873Y-103217856D01*
X122974623Y-103326626D01*
X122974622Y-103326628D01*
X122914834Y-103457543D01*
X122894353Y-103600000D01*
X120577305Y-103600000D01*
X120506128Y-103517857D01*
X120385053Y-103440047D01*
X120385051Y-103440046D01*
X120385049Y-103440045D01*
X120385050Y-103440045D01*
X120246963Y-103399500D01*
X120246961Y-103399500D01*
X120103039Y-103399500D01*
X120103036Y-103399500D01*
X119964949Y-103440045D01*
X119843873Y-103517856D01*
X119749623Y-103626626D01*
X119749622Y-103626628D01*
X119689834Y-103757543D01*
X119669353Y-103900000D01*
X116423928Y-103900000D01*
X117692704Y-102631224D01*
X117696666Y-102627593D01*
X117727694Y-102601559D01*
X117747938Y-102566494D01*
X117750835Y-102561945D01*
X117774054Y-102528788D01*
X117774054Y-102528787D01*
X117780279Y-102519898D01*
X117783661Y-102522266D01*
X117815845Y-102485690D01*
X117883032Y-102466515D01*
X117949920Y-102486707D01*
X117995273Y-102539857D01*
X118004829Y-102572864D01*
X118014834Y-102642456D01*
X118028953Y-102673371D01*
X118074623Y-102773373D01*
X118168872Y-102882143D01*
X118289947Y-102959953D01*
X118289950Y-102959954D01*
X118289949Y-102959954D01*
X118428036Y-103000499D01*
X118428038Y-103000500D01*
X118428039Y-103000500D01*
X118571962Y-103000500D01*
X118571962Y-103000499D01*
X118710053Y-102959953D01*
X118831128Y-102882143D01*
X118925377Y-102773373D01*
X118985165Y-102642457D01*
X119005647Y-102500000D01*
X118991269Y-102400000D01*
X119718853Y-102400000D01*
X119739334Y-102542456D01*
X119785004Y-102642457D01*
X119799123Y-102673373D01*
X119893372Y-102782143D01*
X120014447Y-102859953D01*
X120014450Y-102859954D01*
X120014449Y-102859954D01*
X120152536Y-102900499D01*
X120152538Y-102900500D01*
X120152539Y-102900500D01*
X120296462Y-102900500D01*
X120296462Y-102900499D01*
X120434553Y-102859953D01*
X120555628Y-102782143D01*
X120626805Y-102700000D01*
X124494353Y-102700000D01*
X124514834Y-102842456D01*
X124568494Y-102959953D01*
X124574623Y-102973373D01*
X124668872Y-103082143D01*
X124789947Y-103159953D01*
X124789950Y-103159954D01*
X124789949Y-103159954D01*
X124928036Y-103200499D01*
X124928038Y-103200500D01*
X124928039Y-103200500D01*
X125071962Y-103200500D01*
X125071962Y-103200499D01*
X125210053Y-103159953D01*
X125331128Y-103082143D01*
X125425377Y-102973373D01*
X125485165Y-102842457D01*
X125505647Y-102700000D01*
X125492447Y-102608191D01*
X138213162Y-102608191D01*
X138233643Y-102750647D01*
X138244021Y-102773371D01*
X138293432Y-102881564D01*
X138387681Y-102990334D01*
X138508756Y-103068144D01*
X138508759Y-103068145D01*
X138508758Y-103068145D01*
X138646845Y-103108690D01*
X138646847Y-103108691D01*
X138646848Y-103108691D01*
X138790771Y-103108691D01*
X138790771Y-103108690D01*
X138928862Y-103068144D01*
X139049937Y-102990334D01*
X139144186Y-102881564D01*
X139203974Y-102750648D01*
X139224456Y-102608191D01*
X139203974Y-102465734D01*
X139144186Y-102334818D01*
X139049937Y-102226048D01*
X138928862Y-102148238D01*
X138928860Y-102148237D01*
X138928858Y-102148236D01*
X138928859Y-102148236D01*
X138790772Y-102107691D01*
X138790770Y-102107691D01*
X138646848Y-102107691D01*
X138646845Y-102107691D01*
X138508758Y-102148236D01*
X138387682Y-102226047D01*
X138387681Y-102226047D01*
X138387681Y-102226048D01*
X138383214Y-102231203D01*
X138293432Y-102334817D01*
X138293431Y-102334819D01*
X138233643Y-102465734D01*
X138213162Y-102608191D01*
X125492447Y-102608191D01*
X125485165Y-102557543D01*
X125425377Y-102426627D01*
X125331128Y-102317857D01*
X125232253Y-102254314D01*
X125186500Y-102201512D01*
X125176556Y-102132354D01*
X125205581Y-102068798D01*
X125232254Y-102045685D01*
X125331128Y-101982143D01*
X125425377Y-101873373D01*
X125485165Y-101742457D01*
X125505647Y-101600000D01*
X125485165Y-101457543D01*
X125425377Y-101326627D01*
X125331128Y-101217857D01*
X125210053Y-101140047D01*
X125210051Y-101140046D01*
X125210049Y-101140045D01*
X125210050Y-101140045D01*
X125071963Y-101099500D01*
X125071961Y-101099500D01*
X124928039Y-101099500D01*
X124928036Y-101099500D01*
X124789949Y-101140045D01*
X124668873Y-101217856D01*
X124574623Y-101326626D01*
X124574622Y-101326628D01*
X124514834Y-101457543D01*
X124494353Y-101600000D01*
X124514834Y-101742456D01*
X124574622Y-101873371D01*
X124574623Y-101873373D01*
X124668872Y-101982143D01*
X124668874Y-101982144D01*
X124668876Y-101982146D01*
X124767744Y-102045685D01*
X124813499Y-102098488D01*
X124823443Y-102167647D01*
X124794418Y-102231203D01*
X124767744Y-102254315D01*
X124668876Y-102317853D01*
X124668874Y-102317855D01*
X124668872Y-102317856D01*
X124668872Y-102317857D01*
X124646672Y-102343476D01*
X124574623Y-102426626D01*
X124574622Y-102426628D01*
X124514834Y-102557543D01*
X124494353Y-102700000D01*
X120626805Y-102700000D01*
X120649877Y-102673373D01*
X120709665Y-102542457D01*
X120730147Y-102400000D01*
X120709665Y-102257543D01*
X120649877Y-102126627D01*
X120555628Y-102017857D01*
X120434553Y-101940047D01*
X120434551Y-101940046D01*
X120434549Y-101940045D01*
X120434550Y-101940045D01*
X120296463Y-101899500D01*
X120296461Y-101899500D01*
X120152539Y-101899500D01*
X120152536Y-101899500D01*
X120014449Y-101940045D01*
X119893373Y-102017856D01*
X119799123Y-102126626D01*
X119799122Y-102126628D01*
X119739334Y-102257543D01*
X119718853Y-102400000D01*
X118991269Y-102400000D01*
X118985165Y-102357543D01*
X118925377Y-102226627D01*
X118831128Y-102117857D01*
X118710053Y-102040047D01*
X118710051Y-102040046D01*
X118710049Y-102040045D01*
X118710050Y-102040045D01*
X118571963Y-101999500D01*
X118571961Y-101999500D01*
X118428039Y-101999500D01*
X118428036Y-101999500D01*
X118289949Y-102040045D01*
X118168873Y-102117856D01*
X118074623Y-102226626D01*
X118074622Y-102226628D01*
X118036794Y-102309460D01*
X117991039Y-102362264D01*
X117924000Y-102381948D01*
X117856960Y-102362263D01*
X117811205Y-102309459D01*
X117800000Y-102257948D01*
X117800000Y-100891219D01*
X119460572Y-100891219D01*
X119481053Y-101033675D01*
X119540841Y-101164590D01*
X119540842Y-101164592D01*
X119635091Y-101273362D01*
X119756166Y-101351172D01*
X119756169Y-101351173D01*
X119756168Y-101351173D01*
X119894255Y-101391718D01*
X119894257Y-101391719D01*
X119894258Y-101391719D01*
X120038181Y-101391719D01*
X120038181Y-101391718D01*
X120176272Y-101351172D01*
X120297347Y-101273362D01*
X120391596Y-101164592D01*
X120451384Y-101033676D01*
X120471866Y-100891219D01*
X120451384Y-100748762D01*
X120391596Y-100617846D01*
X120297347Y-100509076D01*
X120176272Y-100431266D01*
X120176270Y-100431265D01*
X120176268Y-100431264D01*
X120176269Y-100431264D01*
X120038182Y-100390719D01*
X120038180Y-100390719D01*
X119894258Y-100390719D01*
X119894255Y-100390719D01*
X119756168Y-100431264D01*
X119635092Y-100509075D01*
X119540842Y-100617845D01*
X119540841Y-100617847D01*
X119481053Y-100748762D01*
X119460572Y-100891219D01*
X117800000Y-100891219D01*
X117800000Y-97800000D01*
X119579353Y-97800000D01*
X119599834Y-97942456D01*
X119659622Y-98073371D01*
X119659623Y-98073373D01*
X119753872Y-98182143D01*
X119874947Y-98259953D01*
X119874950Y-98259954D01*
X119874948Y-98259954D01*
X119960493Y-98285071D01*
X119991703Y-98294235D01*
X120050481Y-98332008D01*
X120079507Y-98395564D01*
X120069564Y-98464722D01*
X120023810Y-98517527D01*
X119991707Y-98532188D01*
X119964950Y-98540045D01*
X119843873Y-98617856D01*
X119749623Y-98726626D01*
X119749622Y-98726628D01*
X119689834Y-98857543D01*
X119669353Y-99000000D01*
X119689834Y-99142456D01*
X119749622Y-99273371D01*
X119749623Y-99273373D01*
X119843872Y-99382143D01*
X119964947Y-99459953D01*
X119964950Y-99459954D01*
X119964949Y-99459954D01*
X120103036Y-99500499D01*
X120103038Y-99500500D01*
X120103039Y-99500500D01*
X120246962Y-99500500D01*
X120246962Y-99500499D01*
X120385053Y-99459953D01*
X120506128Y-99382143D01*
X120600377Y-99273373D01*
X120660165Y-99142457D01*
X120680647Y-99000000D01*
X120660165Y-98857543D01*
X120600377Y-98726627D01*
X120506128Y-98617857D01*
X120385053Y-98540047D01*
X120385051Y-98540046D01*
X120385049Y-98540045D01*
X120385050Y-98540045D01*
X120268296Y-98505764D01*
X120209517Y-98467990D01*
X120180492Y-98404435D01*
X120190435Y-98335276D01*
X120236190Y-98282472D01*
X120268296Y-98267810D01*
X120295050Y-98259954D01*
X120295050Y-98259953D01*
X120295053Y-98259953D01*
X120416128Y-98182143D01*
X120510377Y-98073373D01*
X120570165Y-97942457D01*
X120590647Y-97800000D01*
X120570165Y-97657543D01*
X120510377Y-97526627D01*
X120416128Y-97417857D01*
X120295053Y-97340047D01*
X120295051Y-97340046D01*
X120295049Y-97340045D01*
X120295050Y-97340045D01*
X120156963Y-97299500D01*
X120156961Y-97299500D01*
X120013039Y-97299500D01*
X120013036Y-97299500D01*
X119874949Y-97340045D01*
X119753873Y-97417856D01*
X119659623Y-97526626D01*
X119659622Y-97526628D01*
X119599834Y-97657543D01*
X119579353Y-97800000D01*
X117800000Y-97800000D01*
X117800000Y-96400000D01*
X119618853Y-96400000D01*
X119639334Y-96542456D01*
X119699122Y-96673371D01*
X119699123Y-96673373D01*
X119793372Y-96782143D01*
X119914447Y-96859953D01*
X119914450Y-96859954D01*
X119914449Y-96859954D01*
X120052536Y-96900499D01*
X120052538Y-96900500D01*
X120052539Y-96900500D01*
X120196462Y-96900500D01*
X120196462Y-96900499D01*
X120334553Y-96859953D01*
X120455628Y-96782143D01*
X120549877Y-96673373D01*
X120609665Y-96542457D01*
X120630147Y-96400000D01*
X120609665Y-96257543D01*
X120549877Y-96126627D01*
X120455628Y-96017857D01*
X120334553Y-95940047D01*
X120334551Y-95940046D01*
X120334549Y-95940045D01*
X120334550Y-95940045D01*
X120196463Y-95899500D01*
X120196461Y-95899500D01*
X120052539Y-95899500D01*
X120052536Y-95899500D01*
X119914449Y-95940045D01*
X119793373Y-96017856D01*
X119699123Y-96126626D01*
X119699122Y-96126628D01*
X119639334Y-96257543D01*
X119618853Y-96400000D01*
X117800000Y-96400000D01*
X117800000Y-94927463D01*
X123094353Y-94927463D01*
X123114834Y-95069919D01*
X123150252Y-95147472D01*
X123174623Y-95200836D01*
X123268872Y-95309606D01*
X123389947Y-95387416D01*
X123389950Y-95387417D01*
X123389949Y-95387417D01*
X123528036Y-95427962D01*
X123528038Y-95427963D01*
X123528039Y-95427963D01*
X123671962Y-95427963D01*
X123671962Y-95427962D01*
X123810053Y-95387416D01*
X123931128Y-95309606D01*
X124025377Y-95200836D01*
X124085165Y-95069920D01*
X124105647Y-94927463D01*
X124101698Y-94900000D01*
X130694353Y-94900000D01*
X130714834Y-95042456D01*
X130753275Y-95126628D01*
X130774623Y-95173373D01*
X130868872Y-95282143D01*
X130989947Y-95359953D01*
X130989950Y-95359954D01*
X130989949Y-95359954D01*
X131061055Y-95380832D01*
X131126336Y-95400000D01*
X131128036Y-95400499D01*
X131128038Y-95400500D01*
X131128039Y-95400500D01*
X131271962Y-95400500D01*
X131271962Y-95400499D01*
X131410053Y-95359953D01*
X131531128Y-95282143D01*
X131625377Y-95173373D01*
X131637206Y-95147470D01*
X131682960Y-95094668D01*
X131750000Y-95074983D01*
X131817039Y-95094667D01*
X131862793Y-95147470D01*
X131874623Y-95173373D01*
X131968872Y-95282143D01*
X131968874Y-95282144D01*
X131968876Y-95282146D01*
X132067744Y-95345685D01*
X132113499Y-95398488D01*
X132123443Y-95467647D01*
X132094418Y-95531203D01*
X132067744Y-95554315D01*
X131968876Y-95617853D01*
X131968874Y-95617855D01*
X131874623Y-95726626D01*
X131874622Y-95726628D01*
X131814834Y-95857543D01*
X131794353Y-96000000D01*
X131814834Y-96142456D01*
X131867433Y-96257629D01*
X131874623Y-96273373D01*
X131968872Y-96382143D01*
X132089947Y-96459953D01*
X132089950Y-96459954D01*
X132089949Y-96459954D01*
X132228036Y-96500499D01*
X132228038Y-96500500D01*
X132228039Y-96500500D01*
X132371962Y-96500500D01*
X132371962Y-96500499D01*
X132510053Y-96459953D01*
X132631128Y-96382143D01*
X132706287Y-96295403D01*
X132765064Y-96257629D01*
X132834934Y-96257629D01*
X132893711Y-96295402D01*
X132968872Y-96382143D01*
X133089947Y-96459953D01*
X133089950Y-96459954D01*
X133089949Y-96459954D01*
X133228036Y-96500499D01*
X133228038Y-96500500D01*
X133228039Y-96500500D01*
X133371962Y-96500500D01*
X133371962Y-96500499D01*
X133510053Y-96459953D01*
X133631128Y-96382143D01*
X133725377Y-96273373D01*
X133785165Y-96142457D01*
X133805647Y-96000000D01*
X133785165Y-95857543D01*
X133725377Y-95726627D01*
X133631128Y-95617857D01*
X133532253Y-95554314D01*
X133486500Y-95501512D01*
X133476556Y-95432354D01*
X133505581Y-95368798D01*
X133532254Y-95345685D01*
X133631128Y-95282143D01*
X133725377Y-95173373D01*
X133785165Y-95042457D01*
X133805647Y-94900000D01*
X133785165Y-94757543D01*
X133725377Y-94626627D01*
X133631128Y-94517857D01*
X133510053Y-94440047D01*
X133510051Y-94440046D01*
X133510049Y-94440045D01*
X133510050Y-94440045D01*
X133371963Y-94399500D01*
X133371961Y-94399500D01*
X133228039Y-94399500D01*
X133228036Y-94399500D01*
X133089949Y-94440045D01*
X132968873Y-94517856D01*
X132968872Y-94517856D01*
X132968872Y-94517857D01*
X132898129Y-94599500D01*
X132893713Y-94604596D01*
X132834935Y-94642370D01*
X132765065Y-94642370D01*
X132706287Y-94604596D01*
X132631128Y-94517857D01*
X132631125Y-94517855D01*
X132631123Y-94517853D01*
X132608843Y-94503534D01*
X132563089Y-94450730D01*
X132553146Y-94381571D01*
X132582172Y-94318016D01*
X132640948Y-94280243D01*
X132710053Y-94259953D01*
X132831128Y-94182143D01*
X132925377Y-94073373D01*
X132985165Y-93942457D01*
X133005647Y-93800000D01*
X133003340Y-93783954D01*
X133013281Y-93714796D01*
X133059035Y-93661991D01*
X133126074Y-93642305D01*
X133180907Y-93658404D01*
X133181882Y-93656270D01*
X133189949Y-93659954D01*
X133297107Y-93691417D01*
X133324633Y-93699500D01*
X133328036Y-93700499D01*
X133328038Y-93700500D01*
X133328039Y-93700500D01*
X133471962Y-93700500D01*
X133471962Y-93700499D01*
X133610053Y-93659953D01*
X133731128Y-93582143D01*
X133825377Y-93473373D01*
X133885165Y-93342457D01*
X133905647Y-93200000D01*
X133885165Y-93057543D01*
X133825377Y-92926627D01*
X133731128Y-92817857D01*
X133610053Y-92740047D01*
X133610051Y-92740046D01*
X133610049Y-92740045D01*
X133610050Y-92740045D01*
X133471963Y-92699500D01*
X133471961Y-92699500D01*
X133328039Y-92699500D01*
X133328036Y-92699500D01*
X133189949Y-92740045D01*
X133068873Y-92817856D01*
X132974623Y-92926626D01*
X132974622Y-92926628D01*
X132914834Y-93057543D01*
X132894353Y-93200000D01*
X132894353Y-93200001D01*
X132896660Y-93216048D01*
X132886716Y-93285207D01*
X132840960Y-93338010D01*
X132773921Y-93357694D01*
X132719093Y-93341595D01*
X132718118Y-93343730D01*
X132710050Y-93340045D01*
X132571963Y-93299500D01*
X132571961Y-93299500D01*
X132428039Y-93299500D01*
X132428036Y-93299500D01*
X132289949Y-93340045D01*
X132168873Y-93417856D01*
X132074623Y-93526626D01*
X132074622Y-93526628D01*
X132014834Y-93657543D01*
X131994353Y-93800000D01*
X132014834Y-93942456D01*
X132074622Y-94073371D01*
X132074623Y-94073373D01*
X132168872Y-94182143D01*
X132168874Y-94182144D01*
X132191155Y-94196464D01*
X132236910Y-94249268D01*
X132246853Y-94318427D01*
X132217827Y-94381982D01*
X132159050Y-94419756D01*
X132089949Y-94440045D01*
X131968873Y-94517856D01*
X131874623Y-94626626D01*
X131874622Y-94626628D01*
X131862794Y-94652528D01*
X131817039Y-94705332D01*
X131749999Y-94725016D01*
X131682960Y-94705331D01*
X131637206Y-94652528D01*
X131625377Y-94626628D01*
X131625376Y-94626626D01*
X131606287Y-94604596D01*
X131531128Y-94517857D01*
X131410053Y-94440047D01*
X131410051Y-94440046D01*
X131410049Y-94440045D01*
X131410050Y-94440045D01*
X131271963Y-94399500D01*
X131271961Y-94399500D01*
X131128039Y-94399500D01*
X131128036Y-94399500D01*
X130989949Y-94440045D01*
X130868873Y-94517856D01*
X130774623Y-94626626D01*
X130774622Y-94626628D01*
X130714834Y-94757543D01*
X130694353Y-94900000D01*
X124101698Y-94900000D01*
X124085165Y-94785006D01*
X124025377Y-94654090D01*
X123931128Y-94545320D01*
X123810053Y-94467510D01*
X123810051Y-94467509D01*
X123810049Y-94467508D01*
X123810050Y-94467508D01*
X123671963Y-94426963D01*
X123671961Y-94426963D01*
X123528039Y-94426963D01*
X123528036Y-94426963D01*
X123389949Y-94467508D01*
X123268873Y-94545319D01*
X123174623Y-94654089D01*
X123174622Y-94654091D01*
X123114834Y-94785006D01*
X123094353Y-94927463D01*
X117800000Y-94927463D01*
X117800000Y-94866396D01*
X117805682Y-94829290D01*
X117806517Y-94826627D01*
X117944553Y-94386481D01*
X117944553Y-94386478D01*
X117944555Y-94386473D01*
X117945714Y-94381223D01*
X117946502Y-94381396D01*
X117954296Y-94354211D01*
X117959665Y-94342457D01*
X117975965Y-94229089D01*
X119748442Y-94229089D01*
X119768923Y-94371545D01*
X119812749Y-94467508D01*
X119828712Y-94502462D01*
X119922961Y-94611232D01*
X120044036Y-94689042D01*
X120044039Y-94689043D01*
X120044038Y-94689043D01*
X120182125Y-94729588D01*
X120182127Y-94729589D01*
X120182128Y-94729589D01*
X120326051Y-94729589D01*
X120326051Y-94729588D01*
X120464142Y-94689042D01*
X120585217Y-94611232D01*
X120679466Y-94502462D01*
X120739254Y-94371546D01*
X120759736Y-94229089D01*
X120739254Y-94086632D01*
X120679466Y-93955716D01*
X120585217Y-93846946D01*
X120464142Y-93769136D01*
X120464140Y-93769135D01*
X120464138Y-93769134D01*
X120464139Y-93769134D01*
X120326052Y-93728589D01*
X120326050Y-93728589D01*
X120182128Y-93728589D01*
X120182125Y-93728589D01*
X120044038Y-93769134D01*
X119922962Y-93846945D01*
X119828712Y-93955715D01*
X119828711Y-93955717D01*
X119768923Y-94086632D01*
X119748442Y-94229089D01*
X117975965Y-94229089D01*
X117980147Y-94200000D01*
X117959665Y-94057543D01*
X117899877Y-93926627D01*
X117805628Y-93817857D01*
X117684553Y-93740047D01*
X117684551Y-93740046D01*
X117684549Y-93740045D01*
X117684550Y-93740045D01*
X117546463Y-93699500D01*
X117546461Y-93699500D01*
X117402539Y-93699500D01*
X117362083Y-93711378D01*
X117334434Y-93719497D01*
X117264564Y-93719496D01*
X117205786Y-93681721D01*
X117176762Y-93618165D01*
X117175500Y-93600519D01*
X117175500Y-93400000D01*
X122494353Y-93400000D01*
X122514834Y-93542456D01*
X122567775Y-93658379D01*
X122574623Y-93673373D01*
X122668872Y-93782143D01*
X122789947Y-93859953D01*
X122789950Y-93859954D01*
X122789949Y-93859954D01*
X122928036Y-93900499D01*
X122928038Y-93900500D01*
X122928039Y-93900500D01*
X123071962Y-93900500D01*
X123071962Y-93900499D01*
X123210053Y-93859953D01*
X123331128Y-93782143D01*
X123425377Y-93673373D01*
X123485165Y-93542457D01*
X123505647Y-93400000D01*
X123485165Y-93257543D01*
X123425377Y-93126627D01*
X123331128Y-93017857D01*
X123303342Y-93000000D01*
X125994353Y-93000000D01*
X126014834Y-93142456D01*
X126071895Y-93267399D01*
X126074623Y-93273373D01*
X126168872Y-93382143D01*
X126289947Y-93459953D01*
X126289950Y-93459954D01*
X126289949Y-93459954D01*
X126385099Y-93487892D01*
X126443877Y-93525666D01*
X126472903Y-93589221D01*
X126462960Y-93658379D01*
X126437483Y-93714165D01*
X126417002Y-93856622D01*
X126437483Y-93999078D01*
X126497271Y-94129993D01*
X126497272Y-94129995D01*
X126591521Y-94238765D01*
X126712596Y-94316575D01*
X126712599Y-94316576D01*
X126712598Y-94316576D01*
X126850685Y-94357121D01*
X126850687Y-94357122D01*
X126850688Y-94357122D01*
X126994611Y-94357122D01*
X126994611Y-94357121D01*
X127126395Y-94318427D01*
X127132699Y-94316576D01*
X127132699Y-94316575D01*
X127132702Y-94316575D01*
X127253777Y-94238765D01*
X127348026Y-94129995D01*
X127407814Y-93999079D01*
X127428296Y-93856622D01*
X127407814Y-93714165D01*
X127348026Y-93583249D01*
X127253777Y-93474479D01*
X127219230Y-93452277D01*
X127132700Y-93396667D01*
X127037548Y-93368729D01*
X126978770Y-93330955D01*
X126949745Y-93267399D01*
X126959689Y-93198241D01*
X126959689Y-93198240D01*
X126971047Y-93173371D01*
X126985165Y-93142457D01*
X127005647Y-93000000D01*
X126985165Y-92857543D01*
X126925377Y-92726627D01*
X126831128Y-92617857D01*
X126710053Y-92540047D01*
X126710051Y-92540046D01*
X126710049Y-92540045D01*
X126710050Y-92540045D01*
X126571963Y-92499500D01*
X126571961Y-92499500D01*
X126428039Y-92499500D01*
X126428036Y-92499500D01*
X126289949Y-92540045D01*
X126168873Y-92617856D01*
X126074623Y-92726626D01*
X126074622Y-92726628D01*
X126014834Y-92857543D01*
X125994353Y-93000000D01*
X123303342Y-93000000D01*
X123210053Y-92940047D01*
X123210051Y-92940046D01*
X123210049Y-92940045D01*
X123210050Y-92940045D01*
X123071963Y-92899500D01*
X123071961Y-92899500D01*
X122928039Y-92899500D01*
X122928036Y-92899500D01*
X122789949Y-92940045D01*
X122668873Y-93017856D01*
X122668872Y-93017856D01*
X122668872Y-93017857D01*
X122667022Y-93019992D01*
X122574623Y-93126626D01*
X122574622Y-93126628D01*
X122514834Y-93257543D01*
X122494353Y-93400000D01*
X117175500Y-93400000D01*
X117175500Y-91930524D01*
X117175736Y-91925117D01*
X117179264Y-91884797D01*
X117176202Y-91873371D01*
X117168782Y-91845680D01*
X117167616Y-91840422D01*
X117160588Y-91800559D01*
X117160586Y-91800556D01*
X117160586Y-91800554D01*
X117158760Y-91795537D01*
X117151820Y-91778780D01*
X117149554Y-91773923D01*
X117149554Y-91773920D01*
X117126339Y-91740766D01*
X117123433Y-91736203D01*
X117103196Y-91701152D01*
X117103195Y-91701151D01*
X117103194Y-91701149D01*
X117072177Y-91675122D01*
X117068193Y-91671471D01*
X116996722Y-91600000D01*
X138294353Y-91600000D01*
X138314834Y-91742456D01*
X138374622Y-91873371D01*
X138374623Y-91873373D01*
X138468872Y-91982143D01*
X138589947Y-92059953D01*
X138589950Y-92059954D01*
X138589949Y-92059954D01*
X138728036Y-92100499D01*
X138728038Y-92100500D01*
X138728039Y-92100500D01*
X138871962Y-92100500D01*
X138871962Y-92100499D01*
X139010053Y-92059953D01*
X139131128Y-91982143D01*
X139225377Y-91873373D01*
X139285165Y-91742457D01*
X139305647Y-91600000D01*
X139285165Y-91457543D01*
X139225377Y-91326627D01*
X139131128Y-91217857D01*
X139010053Y-91140047D01*
X139010051Y-91140046D01*
X139010049Y-91140045D01*
X139010050Y-91140045D01*
X138871963Y-91099500D01*
X138871961Y-91099500D01*
X138728039Y-91099500D01*
X138728036Y-91099500D01*
X138589949Y-91140045D01*
X138468873Y-91217856D01*
X138374623Y-91326626D01*
X138374622Y-91326628D01*
X138314834Y-91457543D01*
X138294353Y-91600000D01*
X116996722Y-91600000D01*
X116723348Y-91326626D01*
X116278515Y-90881793D01*
X116274870Y-90877814D01*
X116248852Y-90846807D01*
X116248851Y-90846806D01*
X116237454Y-90840226D01*
X116213788Y-90826561D01*
X116209227Y-90823655D01*
X116196083Y-90814452D01*
X116176080Y-90800446D01*
X116176077Y-90800445D01*
X116171257Y-90798197D01*
X116154451Y-90791235D01*
X116149439Y-90789411D01*
X116109586Y-90782383D01*
X116104306Y-90781212D01*
X116065204Y-90770735D01*
X116030288Y-90773790D01*
X116024877Y-90774264D01*
X116019474Y-90774500D01*
X114266398Y-90774500D01*
X114229292Y-90768818D01*
X114011448Y-90700499D01*
X113786480Y-90629946D01*
X113786478Y-90629945D01*
X113786468Y-90629943D01*
X113776441Y-90628627D01*
X113757653Y-90624660D01*
X113671963Y-90599500D01*
X113671961Y-90599500D01*
X113528039Y-90599500D01*
X113528036Y-90599500D01*
X113389949Y-90640045D01*
X113268873Y-90717856D01*
X113174623Y-90826626D01*
X113174622Y-90826628D01*
X113114834Y-90957543D01*
X113094353Y-91100000D01*
X113114834Y-91242456D01*
X113174622Y-91373371D01*
X113174623Y-91373373D01*
X113268872Y-91482143D01*
X113389947Y-91559953D01*
X113389950Y-91559954D01*
X113389949Y-91559954D01*
X113497107Y-91591417D01*
X113526336Y-91600000D01*
X113528036Y-91600499D01*
X113528038Y-91600500D01*
X113528039Y-91600500D01*
X113671960Y-91600500D01*
X113671961Y-91600500D01*
X113758751Y-91575015D01*
X113780361Y-91570713D01*
X113786481Y-91570053D01*
X114229291Y-91431181D01*
X114266397Y-91425500D01*
X115850208Y-91425500D01*
X115917247Y-91445185D01*
X115937889Y-91461819D01*
X116488181Y-92012111D01*
X116521666Y-92073434D01*
X116524500Y-92099792D01*
X116524500Y-93030950D01*
X116516243Y-93059067D01*
X116522070Y-93070153D01*
X116524500Y-93094583D01*
X116524500Y-102191020D01*
X116504815Y-102258059D01*
X116488181Y-102278701D01*
X116487181Y-102279701D01*
X116425858Y-102313186D01*
X116356166Y-102308202D01*
X116300233Y-102266330D01*
X116275816Y-102200866D01*
X116275500Y-102192020D01*
X116275500Y-93103305D01*
X116275736Y-93097898D01*
X116276972Y-93083774D01*
X116283044Y-93068251D01*
X116281523Y-93065885D01*
X116280726Y-93063045D01*
X116268786Y-93018489D01*
X116267617Y-93013220D01*
X116260588Y-92973351D01*
X116260587Y-92973350D01*
X116260587Y-92973347D01*
X116258765Y-92968343D01*
X116251815Y-92951564D01*
X116249554Y-92946715D01*
X116249553Y-92946714D01*
X116249553Y-92946712D01*
X116226333Y-92913550D01*
X116223435Y-92909000D01*
X116211933Y-92889078D01*
X116203194Y-92873941D01*
X116203191Y-92873938D01*
X116203190Y-92873937D01*
X116183652Y-92857543D01*
X116172182Y-92847918D01*
X116168210Y-92844279D01*
X115852344Y-92528414D01*
X115848699Y-92524435D01*
X115822681Y-92493428D01*
X115822680Y-92493427D01*
X115811283Y-92486847D01*
X115787617Y-92473182D01*
X115783056Y-92470276D01*
X115769912Y-92461073D01*
X115749909Y-92447067D01*
X115749906Y-92447066D01*
X115745086Y-92444818D01*
X115728280Y-92437856D01*
X115723268Y-92436032D01*
X115683415Y-92429004D01*
X115678135Y-92427833D01*
X115639033Y-92417356D01*
X115635496Y-92417666D01*
X115579545Y-92409626D01*
X115253655Y-92282225D01*
X115253653Y-92282224D01*
X115253652Y-92282224D01*
X115253648Y-92282223D01*
X115253643Y-92282222D01*
X115242450Y-92280161D01*
X115236208Y-92278674D01*
X115125342Y-92246121D01*
X115125340Y-92246121D01*
X114981418Y-92246121D01*
X114981415Y-92246121D01*
X114843328Y-92286666D01*
X114722252Y-92364477D01*
X114628002Y-92473247D01*
X114628001Y-92473249D01*
X114568213Y-92604164D01*
X114547732Y-92746621D01*
X114568213Y-92889077D01*
X114618871Y-93000000D01*
X114628002Y-93019994D01*
X114722251Y-93128764D01*
X114843326Y-93206574D01*
X114843329Y-93206575D01*
X114843328Y-93206575D01*
X114981415Y-93247120D01*
X114981417Y-93247121D01*
X114981418Y-93247121D01*
X115125340Y-93247121D01*
X115244629Y-93212094D01*
X115250080Y-93210760D01*
X115257244Y-93209350D01*
X115432494Y-93137153D01*
X115501972Y-93129819D01*
X115564391Y-93161213D01*
X115567403Y-93164125D01*
X115588181Y-93184903D01*
X115621666Y-93246226D01*
X115624500Y-93272584D01*
X115624500Y-94911595D01*
X115604815Y-94978634D01*
X115552011Y-95024389D01*
X115482853Y-95034333D01*
X115419297Y-95005308D01*
X115387706Y-94963107D01*
X115364181Y-94911595D01*
X115325377Y-94826627D01*
X115231128Y-94717857D01*
X115110053Y-94640047D01*
X115110051Y-94640046D01*
X115110049Y-94640045D01*
X115110050Y-94640045D01*
X114971963Y-94599500D01*
X114971961Y-94599500D01*
X114828039Y-94599500D01*
X114828036Y-94599500D01*
X114689949Y-94640045D01*
X114568873Y-94717856D01*
X114474623Y-94826626D01*
X114474622Y-94826628D01*
X114414834Y-94957543D01*
X114394353Y-95100000D01*
X114414834Y-95242456D01*
X114468494Y-95359953D01*
X114474623Y-95373373D01*
X114568872Y-95482143D01*
X114592308Y-95497204D01*
X114638063Y-95550008D01*
X114648007Y-95619166D01*
X114638064Y-95653031D01*
X114590334Y-95757545D01*
X114569853Y-95900000D01*
X114590334Y-96042456D01*
X114636004Y-96142457D01*
X114650123Y-96173373D01*
X114744372Y-96282143D01*
X114865447Y-96359953D01*
X114865450Y-96359954D01*
X114865449Y-96359954D01*
X114941020Y-96382143D01*
X115001836Y-96400000D01*
X115003536Y-96400499D01*
X115003538Y-96400500D01*
X115003539Y-96400500D01*
X115147462Y-96400500D01*
X115147462Y-96400499D01*
X115254621Y-96369035D01*
X115285550Y-96359954D01*
X115285550Y-96359953D01*
X115285553Y-96359953D01*
X115406628Y-96282143D01*
X115406785Y-96281961D01*
X115406986Y-96281832D01*
X115413328Y-96276337D01*
X115414117Y-96277248D01*
X115465559Y-96244186D01*
X115535429Y-96244182D01*
X115594209Y-96281953D01*
X115623237Y-96345508D01*
X115624500Y-96363161D01*
X115624500Y-97608006D01*
X115604815Y-97675045D01*
X115552011Y-97720800D01*
X115482853Y-97730744D01*
X115465567Y-97726984D01*
X115371961Y-97699500D01*
X115228039Y-97699500D01*
X115228036Y-97699500D01*
X115089949Y-97740045D01*
X114968873Y-97817856D01*
X114874623Y-97926626D01*
X114874622Y-97926628D01*
X114814834Y-98057543D01*
X114794353Y-98200000D01*
X114814834Y-98342456D01*
X114870672Y-98464722D01*
X114874623Y-98473373D01*
X114968872Y-98582143D01*
X115089947Y-98659953D01*
X115089950Y-98659954D01*
X115089949Y-98659954D01*
X115228036Y-98700499D01*
X115228038Y-98700500D01*
X115228039Y-98700500D01*
X115371962Y-98700500D01*
X115371962Y-98700499D01*
X115410510Y-98689180D01*
X115465566Y-98673016D01*
X115535435Y-98673016D01*
X115594213Y-98710791D01*
X115623238Y-98774346D01*
X115624500Y-98791993D01*
X115624500Y-102454623D01*
X115604815Y-102521662D01*
X115588181Y-102542304D01*
X114392305Y-103738181D01*
X114330982Y-103771666D01*
X114304624Y-103774500D01*
X111668979Y-103774500D01*
X111620440Y-103764605D01*
X111206008Y-103588311D01*
X111202312Y-103587552D01*
X111197320Y-103586308D01*
X111071963Y-103549500D01*
X111071961Y-103549500D01*
X110928039Y-103549500D01*
X110928036Y-103549500D01*
X110789949Y-103590045D01*
X110668873Y-103667856D01*
X110574623Y-103776626D01*
X110574622Y-103776628D01*
X110514834Y-103907543D01*
X110494353Y-104050000D01*
X106236051Y-104050000D01*
X106285165Y-103942457D01*
X106305647Y-103800000D01*
X106285165Y-103657543D01*
X106225377Y-103526627D01*
X106131128Y-103417857D01*
X106010053Y-103340047D01*
X106010051Y-103340046D01*
X106010049Y-103340045D01*
X106010050Y-103340045D01*
X105871963Y-103299500D01*
X105871961Y-103299500D01*
X105728039Y-103299500D01*
X105728036Y-103299500D01*
X105589949Y-103340045D01*
X105468873Y-103417856D01*
X105374623Y-103526626D01*
X105374622Y-103526628D01*
X105314834Y-103657543D01*
X105294353Y-103800000D01*
X102225500Y-103800000D01*
X102225500Y-102500000D01*
X105394353Y-102500000D01*
X105414834Y-102642456D01*
X105428953Y-102673371D01*
X105474623Y-102773373D01*
X105568872Y-102882143D01*
X105689947Y-102959953D01*
X105689950Y-102959954D01*
X105689949Y-102959954D01*
X105828036Y-103000499D01*
X105828038Y-103000500D01*
X105828039Y-103000500D01*
X105971962Y-103000500D01*
X105971962Y-103000499D01*
X106110053Y-102959953D01*
X106231128Y-102882143D01*
X106325377Y-102773373D01*
X106385165Y-102642457D01*
X106405647Y-102500000D01*
X106385165Y-102357543D01*
X106325377Y-102226627D01*
X106231128Y-102117857D01*
X106110053Y-102040047D01*
X106110051Y-102040046D01*
X106110049Y-102040045D01*
X106110050Y-102040045D01*
X105971963Y-101999500D01*
X105971961Y-101999500D01*
X105828039Y-101999500D01*
X105828036Y-101999500D01*
X105689949Y-102040045D01*
X105568873Y-102117856D01*
X105474623Y-102226626D01*
X105474622Y-102226628D01*
X105414834Y-102357543D01*
X105394353Y-102500000D01*
X102225500Y-102500000D01*
X102225500Y-100075000D01*
X110794353Y-100075000D01*
X110814834Y-100217456D01*
X110874622Y-100348371D01*
X110874623Y-100348373D01*
X110968872Y-100457143D01*
X111089947Y-100534953D01*
X111089950Y-100534954D01*
X111089949Y-100534954D01*
X111228036Y-100575499D01*
X111228038Y-100575500D01*
X111228039Y-100575500D01*
X111371962Y-100575500D01*
X111371962Y-100575499D01*
X111510053Y-100534953D01*
X111631128Y-100457143D01*
X111725377Y-100348373D01*
X111785165Y-100217457D01*
X111805647Y-100075000D01*
X111785165Y-99932543D01*
X111725377Y-99801627D01*
X111631128Y-99692857D01*
X111510053Y-99615047D01*
X111510051Y-99615046D01*
X111510049Y-99615045D01*
X111510050Y-99615045D01*
X111371963Y-99574500D01*
X111371961Y-99574500D01*
X111228039Y-99574500D01*
X111228036Y-99574500D01*
X111089949Y-99615045D01*
X110968873Y-99692856D01*
X110874623Y-99801626D01*
X110874622Y-99801628D01*
X110814834Y-99932543D01*
X110794353Y-100075000D01*
X102225500Y-100075000D01*
X102225500Y-97300000D01*
X107894353Y-97300000D01*
X107914834Y-97442456D01*
X107953275Y-97526628D01*
X107974623Y-97573373D01*
X108068872Y-97682143D01*
X108189947Y-97759953D01*
X108189950Y-97759954D01*
X108189949Y-97759954D01*
X108297107Y-97791417D01*
X108326336Y-97800000D01*
X108328036Y-97800499D01*
X108328038Y-97800500D01*
X108328039Y-97800500D01*
X108471962Y-97800500D01*
X108471962Y-97800499D01*
X108610053Y-97759953D01*
X108731128Y-97682143D01*
X108825377Y-97573373D01*
X108885165Y-97442457D01*
X108905647Y-97300000D01*
X108885165Y-97157543D01*
X108825377Y-97026627D01*
X108731128Y-96917857D01*
X108610053Y-96840047D01*
X108610051Y-96840046D01*
X108610049Y-96840045D01*
X108610050Y-96840045D01*
X108471963Y-96799500D01*
X108471961Y-96799500D01*
X108328039Y-96799500D01*
X108328036Y-96799500D01*
X108189949Y-96840045D01*
X108068873Y-96917856D01*
X107974623Y-97026626D01*
X107974622Y-97026628D01*
X107914834Y-97157543D01*
X107894353Y-97300000D01*
X102225500Y-97300000D01*
X102225500Y-95900000D01*
X102894353Y-95900000D01*
X102914834Y-96042456D01*
X102960504Y-96142457D01*
X102974623Y-96173373D01*
X103068872Y-96282143D01*
X103189947Y-96359953D01*
X103189950Y-96359954D01*
X103189949Y-96359954D01*
X103265520Y-96382143D01*
X103326336Y-96400000D01*
X103328036Y-96400499D01*
X103328038Y-96400500D01*
X103328039Y-96400500D01*
X103471962Y-96400500D01*
X103471962Y-96400499D01*
X103579121Y-96369035D01*
X103610050Y-96359954D01*
X103610050Y-96359953D01*
X103610053Y-96359953D01*
X103731128Y-96282143D01*
X103825377Y-96173373D01*
X103885165Y-96042457D01*
X103905647Y-95900000D01*
X103885165Y-95757543D01*
X103825377Y-95626627D01*
X103731128Y-95517857D01*
X103610053Y-95440047D01*
X103610051Y-95440046D01*
X103610049Y-95440045D01*
X103610050Y-95440045D01*
X103473666Y-95400000D01*
X111594353Y-95400000D01*
X111614834Y-95542456D01*
X111653275Y-95626628D01*
X111674623Y-95673373D01*
X111768872Y-95782143D01*
X111889947Y-95859953D01*
X111889950Y-95859954D01*
X111889949Y-95859954D01*
X111997107Y-95891417D01*
X112026336Y-95900000D01*
X112028036Y-95900499D01*
X112028038Y-95900500D01*
X112028039Y-95900500D01*
X112171962Y-95900500D01*
X112171962Y-95900499D01*
X112310053Y-95859953D01*
X112431128Y-95782143D01*
X112525377Y-95673373D01*
X112585165Y-95542457D01*
X112605647Y-95400000D01*
X112585165Y-95257543D01*
X112525377Y-95126627D01*
X112431128Y-95017857D01*
X112310053Y-94940047D01*
X112310051Y-94940046D01*
X112310049Y-94940045D01*
X112310050Y-94940045D01*
X112171963Y-94899500D01*
X112171961Y-94899500D01*
X112028039Y-94899500D01*
X112028036Y-94899500D01*
X111889949Y-94940045D01*
X111768873Y-95017856D01*
X111674623Y-95126626D01*
X111674622Y-95126628D01*
X111614834Y-95257543D01*
X111594353Y-95400000D01*
X103473666Y-95400000D01*
X103471963Y-95399500D01*
X103471961Y-95399500D01*
X103328039Y-95399500D01*
X103328036Y-95399500D01*
X103189949Y-95440045D01*
X103068873Y-95517856D01*
X102974623Y-95626626D01*
X102974622Y-95626628D01*
X102914834Y-95757543D01*
X102894353Y-95900000D01*
X102225500Y-95900000D01*
X102225500Y-92900000D01*
X105194353Y-92900000D01*
X105214834Y-93042456D01*
X105274622Y-93173371D01*
X105274623Y-93173373D01*
X105368872Y-93282143D01*
X105489947Y-93359953D01*
X105489950Y-93359954D01*
X105489949Y-93359954D01*
X105565520Y-93382143D01*
X105626336Y-93400000D01*
X105628036Y-93400499D01*
X105628038Y-93400500D01*
X105628039Y-93400500D01*
X105771962Y-93400500D01*
X105771962Y-93400499D01*
X105910053Y-93359953D01*
X106031128Y-93282143D01*
X106080642Y-93225000D01*
X110994353Y-93225000D01*
X111014834Y-93367456D01*
X111037852Y-93417857D01*
X111074623Y-93498373D01*
X111168872Y-93607143D01*
X111289947Y-93684953D01*
X111289950Y-93684954D01*
X111289949Y-93684954D01*
X111389435Y-93714165D01*
X111407594Y-93719497D01*
X111428036Y-93725499D01*
X111428038Y-93725500D01*
X111428039Y-93725500D01*
X111571962Y-93725500D01*
X111571962Y-93725499D01*
X111710053Y-93684953D01*
X111831128Y-93607143D01*
X111925377Y-93498373D01*
X111985165Y-93367457D01*
X112005647Y-93225000D01*
X111985165Y-93082543D01*
X111925377Y-92951627D01*
X111831128Y-92842857D01*
X111710053Y-92765047D01*
X111710051Y-92765046D01*
X111710049Y-92765045D01*
X111710050Y-92765045D01*
X111571963Y-92724500D01*
X111571961Y-92724500D01*
X111428039Y-92724500D01*
X111428036Y-92724500D01*
X111289949Y-92765045D01*
X111168873Y-92842856D01*
X111074623Y-92951626D01*
X111074622Y-92951628D01*
X111014834Y-93082543D01*
X110994353Y-93225000D01*
X106080642Y-93225000D01*
X106125377Y-93173373D01*
X106185165Y-93042457D01*
X106205647Y-92900000D01*
X106185165Y-92757543D01*
X106125377Y-92626627D01*
X106031128Y-92517857D01*
X105910053Y-92440047D01*
X105910051Y-92440046D01*
X105910049Y-92440045D01*
X105910050Y-92440045D01*
X105771963Y-92399500D01*
X105771961Y-92399500D01*
X105628039Y-92399500D01*
X105628036Y-92399500D01*
X105489949Y-92440045D01*
X105368873Y-92517856D01*
X105274623Y-92626626D01*
X105274622Y-92626628D01*
X105214834Y-92757543D01*
X105194353Y-92900000D01*
X102225500Y-92900000D01*
X102225500Y-91500000D01*
X103318853Y-91500000D01*
X103339334Y-91642456D01*
X103385004Y-91742457D01*
X103399123Y-91773373D01*
X103493372Y-91882143D01*
X103614447Y-91959953D01*
X103614450Y-91959954D01*
X103614449Y-91959954D01*
X103752536Y-92000499D01*
X103752538Y-92000500D01*
X103752539Y-92000500D01*
X103896462Y-92000500D01*
X103896462Y-92000499D01*
X104034553Y-91959953D01*
X104155628Y-91882143D01*
X104249877Y-91773373D01*
X104309665Y-91642457D01*
X104330147Y-91500000D01*
X108194353Y-91500000D01*
X108214834Y-91642456D01*
X108260504Y-91742457D01*
X108274623Y-91773373D01*
X108368872Y-91882143D01*
X108489947Y-91959953D01*
X108489950Y-91959954D01*
X108489949Y-91959954D01*
X108628036Y-92000499D01*
X108628038Y-92000500D01*
X108628039Y-92000500D01*
X108771962Y-92000500D01*
X108771962Y-92000499D01*
X108910053Y-91959953D01*
X109031128Y-91882143D01*
X109125377Y-91773373D01*
X109185165Y-91642457D01*
X109205647Y-91500000D01*
X111394353Y-91500000D01*
X111414834Y-91642456D01*
X111460504Y-91742457D01*
X111474623Y-91773373D01*
X111568872Y-91882143D01*
X111689947Y-91959953D01*
X111689950Y-91959954D01*
X111689949Y-91959954D01*
X111828036Y-92000499D01*
X111828038Y-92000500D01*
X111828039Y-92000500D01*
X111971962Y-92000500D01*
X111971962Y-92000499D01*
X112110053Y-91959953D01*
X112231128Y-91882143D01*
X112325377Y-91773373D01*
X112385165Y-91642457D01*
X112405647Y-91500000D01*
X112385165Y-91357543D01*
X112325377Y-91226627D01*
X112231128Y-91117857D01*
X112110053Y-91040047D01*
X112110051Y-91040046D01*
X112110049Y-91040045D01*
X112110050Y-91040045D01*
X111971963Y-90999500D01*
X111971961Y-90999500D01*
X111828039Y-90999500D01*
X111828036Y-90999500D01*
X111689949Y-91040045D01*
X111568873Y-91117856D01*
X111474623Y-91226626D01*
X111474622Y-91226628D01*
X111414834Y-91357543D01*
X111394353Y-91500000D01*
X109205647Y-91500000D01*
X109185165Y-91357543D01*
X109125377Y-91226627D01*
X109031128Y-91117857D01*
X108910053Y-91040047D01*
X108910051Y-91040046D01*
X108910049Y-91040045D01*
X108910050Y-91040045D01*
X108771963Y-90999500D01*
X108771961Y-90999500D01*
X108628039Y-90999500D01*
X108628036Y-90999500D01*
X108489949Y-91040045D01*
X108368873Y-91117856D01*
X108274623Y-91226626D01*
X108274622Y-91226628D01*
X108214834Y-91357543D01*
X108194353Y-91500000D01*
X104330147Y-91500000D01*
X104309665Y-91357543D01*
X104249877Y-91226627D01*
X104155628Y-91117857D01*
X104034553Y-91040047D01*
X104034551Y-91040046D01*
X104034549Y-91040045D01*
X104034550Y-91040045D01*
X103896463Y-90999500D01*
X103896461Y-90999500D01*
X103752539Y-90999500D01*
X103752536Y-90999500D01*
X103614449Y-91040045D01*
X103493373Y-91117856D01*
X103399123Y-91226626D01*
X103399122Y-91226628D01*
X103339334Y-91357543D01*
X103318853Y-91500000D01*
X102225500Y-91500000D01*
X102225500Y-90200000D01*
X105994353Y-90200000D01*
X106014834Y-90342456D01*
X106074622Y-90473371D01*
X106074623Y-90473373D01*
X106168872Y-90582143D01*
X106289947Y-90659953D01*
X106289950Y-90659954D01*
X106289949Y-90659954D01*
X106428036Y-90700499D01*
X106428038Y-90700500D01*
X106428039Y-90700500D01*
X106571962Y-90700500D01*
X106571962Y-90700499D01*
X106710053Y-90659953D01*
X106831128Y-90582143D01*
X106925377Y-90473373D01*
X106985165Y-90342457D01*
X107005647Y-90200000D01*
X128994353Y-90200000D01*
X129014834Y-90342456D01*
X129074622Y-90473371D01*
X129074623Y-90473373D01*
X129168872Y-90582143D01*
X129289947Y-90659953D01*
X129289950Y-90659954D01*
X129289949Y-90659954D01*
X129428036Y-90700499D01*
X129428038Y-90700500D01*
X129428039Y-90700500D01*
X129571962Y-90700500D01*
X129571962Y-90700499D01*
X129710053Y-90659953D01*
X129831128Y-90582143D01*
X129925377Y-90473373D01*
X129985165Y-90342457D01*
X130005647Y-90200000D01*
X129985165Y-90057543D01*
X129925377Y-89926627D01*
X129831128Y-89817857D01*
X129710053Y-89740047D01*
X129710051Y-89740046D01*
X129710049Y-89740045D01*
X129710050Y-89740045D01*
X129571963Y-89699500D01*
X129571961Y-89699500D01*
X129428039Y-89699500D01*
X129428036Y-89699500D01*
X129289949Y-89740045D01*
X129168873Y-89817856D01*
X129074623Y-89926626D01*
X129074622Y-89926628D01*
X129014834Y-90057543D01*
X128994353Y-90200000D01*
X107005647Y-90200000D01*
X106985165Y-90057543D01*
X106925377Y-89926627D01*
X106831128Y-89817857D01*
X106710053Y-89740047D01*
X106710051Y-89740046D01*
X106710049Y-89740045D01*
X106710050Y-89740045D01*
X106571963Y-89699500D01*
X106571961Y-89699500D01*
X106428039Y-89699500D01*
X106428036Y-89699500D01*
X106289949Y-89740045D01*
X106168873Y-89817856D01*
X106074623Y-89926626D01*
X106074622Y-89926628D01*
X106014834Y-90057543D01*
X105994353Y-90200000D01*
X102225500Y-90200000D01*
X102225500Y-89325000D01*
X108294353Y-89325000D01*
X108314834Y-89467456D01*
X108342847Y-89528794D01*
X108374623Y-89598373D01*
X108468872Y-89707143D01*
X108589947Y-89784953D01*
X108589950Y-89784954D01*
X108589949Y-89784954D01*
X108728036Y-89825499D01*
X108728038Y-89825500D01*
X108728039Y-89825500D01*
X108871962Y-89825500D01*
X108871962Y-89825499D01*
X109010053Y-89784953D01*
X109131128Y-89707143D01*
X109225377Y-89598373D01*
X109285165Y-89467457D01*
X109305647Y-89325000D01*
X109285165Y-89182543D01*
X109233238Y-89068840D01*
X113532806Y-89068840D01*
X113553287Y-89211296D01*
X113605215Y-89325000D01*
X113613076Y-89342213D01*
X113707325Y-89450983D01*
X113828400Y-89528793D01*
X113828403Y-89528794D01*
X113828402Y-89528794D01*
X113966489Y-89569339D01*
X113966491Y-89569340D01*
X113966492Y-89569340D01*
X114110415Y-89569340D01*
X114110415Y-89569339D01*
X114248506Y-89528793D01*
X114369581Y-89450983D01*
X114463830Y-89342213D01*
X114523618Y-89211297D01*
X114544100Y-89068840D01*
X114523618Y-88926383D01*
X114463830Y-88795467D01*
X114369581Y-88686697D01*
X114248506Y-88608887D01*
X114248504Y-88608886D01*
X114248502Y-88608885D01*
X114248503Y-88608885D01*
X114110416Y-88568340D01*
X114110414Y-88568340D01*
X113966492Y-88568340D01*
X113966489Y-88568340D01*
X113828402Y-88608885D01*
X113707326Y-88686696D01*
X113613076Y-88795466D01*
X113613075Y-88795468D01*
X113553287Y-88926383D01*
X113532806Y-89068840D01*
X109233238Y-89068840D01*
X109225377Y-89051627D01*
X109131128Y-88942857D01*
X109010053Y-88865047D01*
X109010051Y-88865046D01*
X109010049Y-88865045D01*
X109010050Y-88865045D01*
X108871963Y-88824500D01*
X108871961Y-88824500D01*
X108728039Y-88824500D01*
X108728036Y-88824500D01*
X108589949Y-88865045D01*
X108468873Y-88942856D01*
X108374623Y-89051626D01*
X108374622Y-89051628D01*
X108314834Y-89182543D01*
X108294353Y-89325000D01*
X102225500Y-89325000D01*
X102225500Y-88100000D01*
X105394353Y-88100000D01*
X105414834Y-88242456D01*
X105474622Y-88373371D01*
X105474623Y-88373373D01*
X105568872Y-88482143D01*
X105689947Y-88559953D01*
X105689950Y-88559954D01*
X105689949Y-88559954D01*
X105828036Y-88600499D01*
X105828038Y-88600500D01*
X105828039Y-88600500D01*
X105971962Y-88600500D01*
X105971962Y-88600499D01*
X106110053Y-88559953D01*
X106231128Y-88482143D01*
X106325377Y-88373373D01*
X106385165Y-88242457D01*
X106405647Y-88100000D01*
X106385165Y-87957543D01*
X106325377Y-87826627D01*
X106231128Y-87717857D01*
X106110053Y-87640047D01*
X106110051Y-87640046D01*
X106110049Y-87640045D01*
X106110050Y-87640045D01*
X105973666Y-87600000D01*
X106894353Y-87600000D01*
X106914834Y-87742456D01*
X106953275Y-87826628D01*
X106974623Y-87873373D01*
X107068872Y-87982143D01*
X107189947Y-88059953D01*
X107189950Y-88059954D01*
X107189949Y-88059954D01*
X107297107Y-88091417D01*
X107326336Y-88100000D01*
X107328036Y-88100499D01*
X107328038Y-88100500D01*
X107328039Y-88100500D01*
X107471962Y-88100500D01*
X107471962Y-88100499D01*
X107610053Y-88059953D01*
X107731128Y-87982143D01*
X107825377Y-87873373D01*
X107885165Y-87742457D01*
X107905647Y-87600000D01*
X107885165Y-87457543D01*
X107858886Y-87400000D01*
X109694353Y-87400000D01*
X109714834Y-87542456D01*
X109760504Y-87642457D01*
X109774623Y-87673373D01*
X109868872Y-87782143D01*
X109989947Y-87859953D01*
X109989950Y-87859954D01*
X109989949Y-87859954D01*
X110128036Y-87900499D01*
X110128038Y-87900500D01*
X110128039Y-87900500D01*
X110271962Y-87900500D01*
X110271962Y-87900499D01*
X110410053Y-87859953D01*
X110531128Y-87782143D01*
X110625377Y-87673373D01*
X110685165Y-87542457D01*
X110691269Y-87500000D01*
X117494353Y-87500000D01*
X117514834Y-87642456D01*
X117560504Y-87742457D01*
X117574623Y-87773373D01*
X117668872Y-87882143D01*
X117789947Y-87959953D01*
X117789950Y-87959954D01*
X117789949Y-87959954D01*
X117928036Y-88000499D01*
X117928038Y-88000500D01*
X117928039Y-88000500D01*
X118071962Y-88000500D01*
X118071962Y-88000499D01*
X118210053Y-87959953D01*
X118331128Y-87882143D01*
X118425377Y-87773373D01*
X118485165Y-87642457D01*
X118505647Y-87500000D01*
X118485165Y-87357543D01*
X118425377Y-87226627D01*
X118331128Y-87117857D01*
X118210053Y-87040047D01*
X118210051Y-87040046D01*
X118210049Y-87040045D01*
X118210050Y-87040045D01*
X118071963Y-86999500D01*
X118071961Y-86999500D01*
X117928039Y-86999500D01*
X117928036Y-86999500D01*
X117789949Y-87040045D01*
X117668873Y-87117856D01*
X117574623Y-87226626D01*
X117574622Y-87226628D01*
X117514834Y-87357543D01*
X117494353Y-87500000D01*
X110691269Y-87500000D01*
X110705647Y-87400000D01*
X110685165Y-87257543D01*
X110625377Y-87126627D01*
X110531128Y-87017857D01*
X110410053Y-86940047D01*
X110410051Y-86940046D01*
X110410049Y-86940045D01*
X110410050Y-86940045D01*
X110271963Y-86899500D01*
X110271961Y-86899500D01*
X110128039Y-86899500D01*
X110128036Y-86899500D01*
X109989949Y-86940045D01*
X109868873Y-87017856D01*
X109774623Y-87126626D01*
X109774622Y-87126628D01*
X109714834Y-87257543D01*
X109694353Y-87400000D01*
X107858886Y-87400000D01*
X107825377Y-87326627D01*
X107731128Y-87217857D01*
X107610053Y-87140047D01*
X107610051Y-87140046D01*
X107610049Y-87140045D01*
X107610050Y-87140045D01*
X107471963Y-87099500D01*
X107471961Y-87099500D01*
X107328039Y-87099500D01*
X107328036Y-87099500D01*
X107189949Y-87140045D01*
X107068873Y-87217856D01*
X106974623Y-87326626D01*
X106974622Y-87326628D01*
X106914834Y-87457543D01*
X106894353Y-87600000D01*
X105973666Y-87600000D01*
X105971963Y-87599500D01*
X105971961Y-87599500D01*
X105828039Y-87599500D01*
X105828036Y-87599500D01*
X105689949Y-87640045D01*
X105568873Y-87717856D01*
X105474623Y-87826626D01*
X105474622Y-87826628D01*
X105414834Y-87957543D01*
X105394353Y-88100000D01*
X102225500Y-88100000D01*
X102225500Y-84800000D01*
X104646556Y-84800000D01*
X104665680Y-85043006D01*
X104665680Y-85043009D01*
X104665681Y-85043012D01*
X104703491Y-85200499D01*
X104722588Y-85280045D01*
X104815868Y-85505245D01*
X104815870Y-85505248D01*
X104943233Y-85713085D01*
X104943239Y-85713094D01*
X105101546Y-85898448D01*
X105101551Y-85898453D01*
X105283424Y-86053787D01*
X105286909Y-86056763D01*
X105286914Y-86056766D01*
X105494751Y-86184129D01*
X105494754Y-86184131D01*
X105719954Y-86277411D01*
X105719959Y-86277413D01*
X105956988Y-86334319D01*
X106200000Y-86353444D01*
X106443012Y-86334319D01*
X106680041Y-86277413D01*
X106866933Y-86200000D01*
X106905245Y-86184131D01*
X106905246Y-86184130D01*
X106905249Y-86184129D01*
X107113091Y-86056763D01*
X107179552Y-86000000D01*
X109594353Y-86000000D01*
X109614834Y-86142456D01*
X109632959Y-86182143D01*
X109674623Y-86273373D01*
X109768872Y-86382143D01*
X109889947Y-86459953D01*
X109889950Y-86459954D01*
X109889949Y-86459954D01*
X110028036Y-86500499D01*
X110028038Y-86500500D01*
X110028039Y-86500500D01*
X110171962Y-86500500D01*
X110171962Y-86500499D01*
X110310053Y-86459953D01*
X110431128Y-86382143D01*
X110525377Y-86273373D01*
X110585165Y-86142457D01*
X110605647Y-86000000D01*
X110585165Y-85857543D01*
X110558886Y-85800000D01*
X114394353Y-85800000D01*
X114414834Y-85942456D01*
X114474622Y-86073371D01*
X114474623Y-86073373D01*
X114568872Y-86182143D01*
X114689947Y-86259953D01*
X114689950Y-86259954D01*
X114689949Y-86259954D01*
X114828036Y-86300499D01*
X114828038Y-86300500D01*
X114828039Y-86300500D01*
X114971962Y-86300500D01*
X114971962Y-86300499D01*
X115110053Y-86259953D01*
X115203342Y-86200000D01*
X116994353Y-86200000D01*
X117014834Y-86342456D01*
X117032959Y-86382143D01*
X117074623Y-86473373D01*
X117168872Y-86582143D01*
X117289947Y-86659953D01*
X117289950Y-86659954D01*
X117289949Y-86659954D01*
X117428036Y-86700499D01*
X117428038Y-86700500D01*
X117428039Y-86700500D01*
X117571962Y-86700500D01*
X117571962Y-86700499D01*
X117710053Y-86659953D01*
X117831128Y-86582143D01*
X117925377Y-86473373D01*
X117985165Y-86342457D01*
X118005647Y-86200000D01*
X117985165Y-86057543D01*
X117925377Y-85926627D01*
X117831128Y-85817857D01*
X117710053Y-85740047D01*
X117710051Y-85740046D01*
X117710049Y-85740045D01*
X117710050Y-85740045D01*
X117571963Y-85699500D01*
X117571961Y-85699500D01*
X117428039Y-85699500D01*
X117428036Y-85699500D01*
X117289949Y-85740045D01*
X117168873Y-85817856D01*
X117074623Y-85926626D01*
X117074622Y-85926628D01*
X117014834Y-86057543D01*
X116994353Y-86200000D01*
X115203342Y-86200000D01*
X115231128Y-86182143D01*
X115325377Y-86073373D01*
X115385165Y-85942457D01*
X115405647Y-85800000D01*
X115385165Y-85657543D01*
X115325377Y-85526627D01*
X115231128Y-85417857D01*
X115110053Y-85340047D01*
X115110051Y-85340046D01*
X115110049Y-85340045D01*
X115110050Y-85340045D01*
X114971963Y-85299500D01*
X114971961Y-85299500D01*
X114828039Y-85299500D01*
X114828036Y-85299500D01*
X114689949Y-85340045D01*
X114568873Y-85417856D01*
X114474623Y-85526626D01*
X114474622Y-85526628D01*
X114414834Y-85657543D01*
X114394353Y-85800000D01*
X110558886Y-85800000D01*
X110525377Y-85726627D01*
X110431128Y-85617857D01*
X110310053Y-85540047D01*
X110310051Y-85540046D01*
X110310049Y-85540045D01*
X110310050Y-85540045D01*
X110171963Y-85499500D01*
X110171961Y-85499500D01*
X110028039Y-85499500D01*
X110028036Y-85499500D01*
X109889949Y-85540045D01*
X109768873Y-85617856D01*
X109674623Y-85726626D01*
X109674622Y-85726628D01*
X109614834Y-85857543D01*
X109594353Y-86000000D01*
X107179552Y-86000000D01*
X107298451Y-85898451D01*
X107456763Y-85713091D01*
X107584129Y-85505249D01*
X107586511Y-85499500D01*
X107652558Y-85340047D01*
X107677413Y-85280041D01*
X107734319Y-85043012D01*
X107753444Y-84800000D01*
X107745574Y-84700000D01*
X108694353Y-84700000D01*
X108714834Y-84842456D01*
X108774622Y-84973371D01*
X108774623Y-84973373D01*
X108868872Y-85082143D01*
X108989947Y-85159953D01*
X108989950Y-85159954D01*
X108989949Y-85159954D01*
X109128036Y-85200499D01*
X109128038Y-85200500D01*
X109128039Y-85200500D01*
X109271962Y-85200500D01*
X109271962Y-85200499D01*
X109410053Y-85159953D01*
X109531128Y-85082143D01*
X109625377Y-84973373D01*
X109685165Y-84842457D01*
X109691269Y-84800000D01*
X134446556Y-84800000D01*
X134465680Y-85043006D01*
X134465680Y-85043009D01*
X134465681Y-85043012D01*
X134503491Y-85200499D01*
X134522588Y-85280045D01*
X134615868Y-85505245D01*
X134615870Y-85505248D01*
X134743233Y-85713085D01*
X134743239Y-85713094D01*
X134901546Y-85898448D01*
X134901551Y-85898453D01*
X135083424Y-86053787D01*
X135086909Y-86056763D01*
X135086914Y-86056766D01*
X135294751Y-86184129D01*
X135294754Y-86184131D01*
X135519954Y-86277411D01*
X135519959Y-86277413D01*
X135756988Y-86334319D01*
X136000000Y-86353444D01*
X136243012Y-86334319D01*
X136480041Y-86277413D01*
X136666933Y-86200000D01*
X136705245Y-86184131D01*
X136705246Y-86184130D01*
X136705249Y-86184129D01*
X136913091Y-86056763D01*
X137098451Y-85898451D01*
X137256763Y-85713091D01*
X137384129Y-85505249D01*
X137386511Y-85499500D01*
X137452558Y-85340047D01*
X137477413Y-85280041D01*
X137534319Y-85043012D01*
X137553444Y-84800000D01*
X137534319Y-84556988D01*
X137477413Y-84319959D01*
X137476542Y-84317856D01*
X137384131Y-84094754D01*
X137384129Y-84094751D01*
X137256766Y-83886914D01*
X137256760Y-83886905D01*
X137098453Y-83701551D01*
X137098448Y-83701546D01*
X136913094Y-83543239D01*
X136913085Y-83543233D01*
X136705248Y-83415870D01*
X136705245Y-83415868D01*
X136480045Y-83322588D01*
X136480041Y-83322587D01*
X136243012Y-83265681D01*
X136243009Y-83265680D01*
X136243006Y-83265680D01*
X136000000Y-83246556D01*
X135756993Y-83265680D01*
X135756989Y-83265680D01*
X135756988Y-83265681D01*
X135638473Y-83294134D01*
X135519954Y-83322588D01*
X135294754Y-83415868D01*
X135294751Y-83415870D01*
X135086914Y-83543233D01*
X135086905Y-83543239D01*
X134901551Y-83701546D01*
X134901546Y-83701551D01*
X134743239Y-83886905D01*
X134743233Y-83886914D01*
X134615870Y-84094751D01*
X134615868Y-84094754D01*
X134522588Y-84319954D01*
X134465680Y-84556993D01*
X134446556Y-84800000D01*
X109691269Y-84800000D01*
X109705647Y-84700000D01*
X109685165Y-84557543D01*
X109625377Y-84426627D01*
X109531128Y-84317857D01*
X109410053Y-84240047D01*
X109410051Y-84240046D01*
X109410049Y-84240045D01*
X109410050Y-84240045D01*
X109271963Y-84199500D01*
X109271961Y-84199500D01*
X109128039Y-84199500D01*
X109128036Y-84199500D01*
X108989949Y-84240045D01*
X108868873Y-84317856D01*
X108774623Y-84426626D01*
X108774622Y-84426628D01*
X108714834Y-84557543D01*
X108694353Y-84700000D01*
X107745574Y-84700000D01*
X107734319Y-84556988D01*
X107677413Y-84319959D01*
X107676542Y-84317856D01*
X107584131Y-84094754D01*
X107584129Y-84094751D01*
X107456766Y-83886914D01*
X107456760Y-83886905D01*
X107298453Y-83701551D01*
X107298448Y-83701546D01*
X107113094Y-83543239D01*
X107113085Y-83543233D01*
X106905248Y-83415870D01*
X106905245Y-83415868D01*
X106680045Y-83322588D01*
X106680041Y-83322587D01*
X106601578Y-83303749D01*
X106540987Y-83268958D01*
X106508824Y-83206932D01*
X106515300Y-83137363D01*
X106558361Y-83082339D01*
X106595593Y-83064198D01*
X106610053Y-83059953D01*
X106731128Y-82982143D01*
X106825377Y-82873373D01*
X106858886Y-82800000D01*
X107294353Y-82800000D01*
X107314834Y-82942456D01*
X107353835Y-83027855D01*
X107374623Y-83073373D01*
X107468872Y-83182143D01*
X107589947Y-83259953D01*
X107589950Y-83259954D01*
X107589949Y-83259954D01*
X107728036Y-83300499D01*
X107728038Y-83300500D01*
X107728039Y-83300500D01*
X107871962Y-83300500D01*
X107871962Y-83300499D01*
X107990545Y-83265681D01*
X108010050Y-83259954D01*
X108010050Y-83259953D01*
X108010053Y-83259953D01*
X108131128Y-83182143D01*
X108202305Y-83100000D01*
X120994353Y-83100000D01*
X121014834Y-83242456D01*
X121051430Y-83322588D01*
X121074623Y-83373373D01*
X121168872Y-83482143D01*
X121289947Y-83559953D01*
X121289950Y-83559954D01*
X121289949Y-83559954D01*
X121428036Y-83600499D01*
X121428038Y-83600500D01*
X121428039Y-83600500D01*
X121571962Y-83600500D01*
X121571962Y-83600499D01*
X121710053Y-83559953D01*
X121831128Y-83482143D01*
X121925377Y-83373373D01*
X121985165Y-83242457D01*
X122005647Y-83100000D01*
X121985165Y-82957543D01*
X121925377Y-82826627D01*
X121831128Y-82717857D01*
X121803342Y-82700000D01*
X122594353Y-82700000D01*
X122614834Y-82842456D01*
X122674622Y-82973371D01*
X122674623Y-82973373D01*
X122768872Y-83082143D01*
X122889947Y-83159953D01*
X122889950Y-83159954D01*
X122889949Y-83159954D01*
X123028036Y-83200499D01*
X123028038Y-83200500D01*
X123028039Y-83200500D01*
X123171962Y-83200500D01*
X123171962Y-83200499D01*
X123308347Y-83160454D01*
X123310050Y-83159954D01*
X123310050Y-83159953D01*
X123310053Y-83159953D01*
X123431128Y-83082143D01*
X123525377Y-82973373D01*
X123585165Y-82842457D01*
X123605575Y-82700500D01*
X124894353Y-82700500D01*
X124914834Y-82842956D01*
X124967165Y-82957543D01*
X124974623Y-82973873D01*
X125068872Y-83082643D01*
X125189947Y-83160453D01*
X125189950Y-83160454D01*
X125189949Y-83160454D01*
X125263817Y-83182143D01*
X125326336Y-83200500D01*
X125328036Y-83200999D01*
X125328038Y-83201000D01*
X125328039Y-83201000D01*
X125471962Y-83201000D01*
X125471962Y-83200999D01*
X125610053Y-83160453D01*
X125731128Y-83082643D01*
X125825377Y-82973873D01*
X125885165Y-82842957D01*
X125891341Y-82800000D01*
X126994353Y-82800000D01*
X127014834Y-82942456D01*
X127053835Y-83027855D01*
X127074623Y-83073373D01*
X127168872Y-83182143D01*
X127289947Y-83259953D01*
X127289950Y-83259954D01*
X127289949Y-83259954D01*
X127428036Y-83300499D01*
X127428038Y-83300500D01*
X127428039Y-83300500D01*
X127571962Y-83300500D01*
X127571962Y-83300499D01*
X127690545Y-83265681D01*
X127710050Y-83259954D01*
X127710050Y-83259953D01*
X127710053Y-83259953D01*
X127831128Y-83182143D01*
X127925377Y-83073373D01*
X127985165Y-82942457D01*
X128005647Y-82800000D01*
X133294353Y-82800000D01*
X133314834Y-82942456D01*
X133353835Y-83027855D01*
X133374623Y-83073373D01*
X133468872Y-83182143D01*
X133589947Y-83259953D01*
X133589950Y-83259954D01*
X133589949Y-83259954D01*
X133728036Y-83300499D01*
X133728038Y-83300500D01*
X133728039Y-83300500D01*
X133871962Y-83300500D01*
X133871962Y-83300499D01*
X133990545Y-83265681D01*
X134010050Y-83259954D01*
X134010050Y-83259953D01*
X134010053Y-83259953D01*
X134131128Y-83182143D01*
X134225377Y-83073373D01*
X134285165Y-82942457D01*
X134305647Y-82800000D01*
X134285165Y-82657543D01*
X134225377Y-82526627D01*
X134131128Y-82417857D01*
X134010053Y-82340047D01*
X134010051Y-82340046D01*
X134010049Y-82340045D01*
X134010050Y-82340045D01*
X133871963Y-82299500D01*
X133871961Y-82299500D01*
X133728039Y-82299500D01*
X133728036Y-82299500D01*
X133589949Y-82340045D01*
X133468873Y-82417856D01*
X133374623Y-82526626D01*
X133374622Y-82526628D01*
X133314834Y-82657543D01*
X133294353Y-82800000D01*
X128005647Y-82800000D01*
X127985165Y-82657543D01*
X127925377Y-82526627D01*
X127831128Y-82417857D01*
X127710053Y-82340047D01*
X127710051Y-82340046D01*
X127710049Y-82340045D01*
X127710050Y-82340045D01*
X127571963Y-82299500D01*
X127571961Y-82299500D01*
X127428039Y-82299500D01*
X127428036Y-82299500D01*
X127289949Y-82340045D01*
X127168873Y-82417856D01*
X127074623Y-82526626D01*
X127074622Y-82526628D01*
X127014834Y-82657543D01*
X126994353Y-82800000D01*
X125891341Y-82800000D01*
X125905647Y-82700500D01*
X125885165Y-82558043D01*
X125825377Y-82427127D01*
X125731128Y-82318357D01*
X125610053Y-82240547D01*
X125610051Y-82240546D01*
X125610049Y-82240545D01*
X125610050Y-82240545D01*
X125471963Y-82200000D01*
X125471961Y-82200000D01*
X125328039Y-82200000D01*
X125328036Y-82200000D01*
X125189949Y-82240545D01*
X125068873Y-82318356D01*
X124974623Y-82427126D01*
X124974622Y-82427128D01*
X124914834Y-82558043D01*
X124894353Y-82700500D01*
X123605575Y-82700500D01*
X123605647Y-82700000D01*
X123585165Y-82557543D01*
X123525377Y-82426627D01*
X123431128Y-82317857D01*
X123310053Y-82240047D01*
X123310051Y-82240046D01*
X123310049Y-82240045D01*
X123310050Y-82240045D01*
X123171963Y-82199500D01*
X123171961Y-82199500D01*
X123028039Y-82199500D01*
X123028036Y-82199500D01*
X122889949Y-82240045D01*
X122768873Y-82317856D01*
X122674623Y-82426626D01*
X122674622Y-82426628D01*
X122614834Y-82557543D01*
X122594353Y-82700000D01*
X121803342Y-82700000D01*
X121710053Y-82640047D01*
X121710051Y-82640046D01*
X121710049Y-82640045D01*
X121710050Y-82640045D01*
X121571963Y-82599500D01*
X121571961Y-82599500D01*
X121428039Y-82599500D01*
X121428036Y-82599500D01*
X121289949Y-82640045D01*
X121168873Y-82717856D01*
X121074623Y-82826626D01*
X121074622Y-82826628D01*
X121014834Y-82957543D01*
X120994353Y-83100000D01*
X108202305Y-83100000D01*
X108225377Y-83073373D01*
X108285165Y-82942457D01*
X108305647Y-82800000D01*
X108285165Y-82657543D01*
X108225377Y-82526627D01*
X108131128Y-82417857D01*
X108010053Y-82340047D01*
X108010051Y-82340046D01*
X108010049Y-82340045D01*
X108010050Y-82340045D01*
X107871963Y-82299500D01*
X107871961Y-82299500D01*
X107728039Y-82299500D01*
X107728036Y-82299500D01*
X107589949Y-82340045D01*
X107468873Y-82417856D01*
X107374623Y-82526626D01*
X107374622Y-82526628D01*
X107314834Y-82657543D01*
X107294353Y-82800000D01*
X106858886Y-82800000D01*
X106885165Y-82742457D01*
X106905647Y-82600000D01*
X106885165Y-82457543D01*
X106825377Y-82326627D01*
X106731128Y-82217857D01*
X106610053Y-82140047D01*
X106610051Y-82140046D01*
X106610049Y-82140045D01*
X106610050Y-82140045D01*
X106473666Y-82100000D01*
X114494353Y-82100000D01*
X114514834Y-82242456D01*
X114553275Y-82326628D01*
X114574623Y-82373373D01*
X114668872Y-82482143D01*
X114789947Y-82559953D01*
X114789950Y-82559954D01*
X114789949Y-82559954D01*
X114897107Y-82591417D01*
X114926336Y-82600000D01*
X114928036Y-82600499D01*
X114928038Y-82600500D01*
X114928039Y-82600500D01*
X115071962Y-82600500D01*
X115071962Y-82600499D01*
X115210053Y-82559953D01*
X115331128Y-82482143D01*
X115425377Y-82373373D01*
X115485165Y-82242457D01*
X115505647Y-82100000D01*
X115485165Y-81957543D01*
X115425377Y-81826627D01*
X115331128Y-81717857D01*
X115210053Y-81640047D01*
X115210051Y-81640046D01*
X115210049Y-81640045D01*
X115210050Y-81640045D01*
X115071963Y-81599500D01*
X115071961Y-81599500D01*
X114928039Y-81599500D01*
X114928036Y-81599500D01*
X114789949Y-81640045D01*
X114668873Y-81717856D01*
X114574623Y-81826626D01*
X114574622Y-81826628D01*
X114514834Y-81957543D01*
X114494353Y-82100000D01*
X106473666Y-82100000D01*
X106471963Y-82099500D01*
X106471961Y-82099500D01*
X106328039Y-82099500D01*
X106328036Y-82099500D01*
X106189949Y-82140045D01*
X106068873Y-82217856D01*
X105974623Y-82326626D01*
X105974622Y-82326628D01*
X105914834Y-82457543D01*
X105894353Y-82600000D01*
X105914834Y-82742456D01*
X105960504Y-82842457D01*
X105974623Y-82873373D01*
X106068872Y-82982143D01*
X106068874Y-82982144D01*
X106068876Y-82982146D01*
X106140000Y-83027855D01*
X106185755Y-83080658D01*
X106195699Y-83149817D01*
X106166674Y-83213373D01*
X106107896Y-83251147D01*
X106082690Y-83255788D01*
X105956992Y-83265680D01*
X105719954Y-83322588D01*
X105494754Y-83415868D01*
X105494751Y-83415870D01*
X105286914Y-83543233D01*
X105286905Y-83543239D01*
X105101551Y-83701546D01*
X105101546Y-83701551D01*
X104943239Y-83886905D01*
X104943233Y-83886914D01*
X104815870Y-84094751D01*
X104815868Y-84094754D01*
X104722588Y-84319954D01*
X104665680Y-84556993D01*
X104646556Y-84800000D01*
X102225500Y-84800000D01*
X102225500Y-82400000D01*
X102894353Y-82400000D01*
X102914834Y-82542456D01*
X102974622Y-82673371D01*
X102974623Y-82673373D01*
X103068872Y-82782143D01*
X103189947Y-82859953D01*
X103189950Y-82859954D01*
X103189949Y-82859954D01*
X103328036Y-82900499D01*
X103328038Y-82900500D01*
X103328039Y-82900500D01*
X103471962Y-82900500D01*
X103471962Y-82900499D01*
X103610053Y-82859953D01*
X103731128Y-82782143D01*
X103825377Y-82673373D01*
X103885165Y-82542457D01*
X103905647Y-82400000D01*
X103885165Y-82257543D01*
X103825377Y-82126627D01*
X103731128Y-82017857D01*
X103610053Y-81940047D01*
X103610051Y-81940046D01*
X103610049Y-81940045D01*
X103610050Y-81940045D01*
X103471963Y-81899500D01*
X103471961Y-81899500D01*
X103328039Y-81899500D01*
X103328036Y-81899500D01*
X103189949Y-81940045D01*
X103068873Y-82017856D01*
X102974623Y-82126626D01*
X102974622Y-82126628D01*
X102914834Y-82257543D01*
X102894353Y-82400000D01*
X102225500Y-82400000D01*
X102225500Y-81149500D01*
X102245185Y-81082461D01*
X102297989Y-81036706D01*
X102349500Y-81025500D01*
X139750500Y-81025500D01*
X139817539Y-81045185D01*
G37*
%TD.AperFunction*%
%TD*%
%TA.AperFunction,Conductor*%
%TO.N,MOSI_OSD*%
G36*
X111678849Y-105147005D02*
G01*
X111679461Y-105147575D01*
X111839358Y-105307472D01*
X111842785Y-105315745D01*
X111840801Y-105322264D01*
X111520033Y-105800355D01*
X111512578Y-105805316D01*
X111503798Y-105803552D01*
X111502071Y-105802137D01*
X111300970Y-105602373D01*
X111298393Y-105598516D01*
X111189747Y-105333922D01*
X111189774Y-105324967D01*
X111196126Y-105318655D01*
X111196347Y-105318567D01*
X111243763Y-105300417D01*
X111281043Y-105286148D01*
X111285225Y-105285375D01*
X111386863Y-105285375D01*
X111524955Y-105244828D01*
X111646030Y-105167018D01*
X111662346Y-105148186D01*
X111670352Y-105144178D01*
X111678849Y-105147005D01*
G37*
%TD.AperFunction*%
%TD*%
%TA.AperFunction,Conductor*%
%TO.N,MOSI_OSD*%
G36*
X117741818Y-94310691D02*
G01*
X117748129Y-94317042D01*
X117748470Y-94324987D01*
X117602071Y-94791801D01*
X117596325Y-94798670D01*
X117590907Y-94800000D01*
X117358093Y-94800000D01*
X117349820Y-94796573D01*
X117346929Y-94791801D01*
X117200529Y-94324987D01*
X117201323Y-94316068D01*
X117207179Y-94310692D01*
X117469990Y-94200883D01*
X117478944Y-94200857D01*
X117741818Y-94310691D01*
G37*
%TD.AperFunction*%
%TD*%
%TA.AperFunction,Conductor*%
%TO.N,SCLK_OSD*%
G36*
X114191802Y-90972429D02*
G01*
X114198670Y-90978174D01*
X114200000Y-90983592D01*
X114200000Y-91216407D01*
X114196573Y-91224680D01*
X114191801Y-91227571D01*
X113724987Y-91373970D01*
X113716068Y-91373176D01*
X113710691Y-91367318D01*
X113600883Y-91104509D01*
X113600857Y-91095556D01*
X113600862Y-91095542D01*
X113710691Y-90832680D01*
X113717042Y-90826370D01*
X113724986Y-90826029D01*
X114191802Y-90972429D01*
G37*
%TD.AperFunction*%
%TD*%
%TA.AperFunction,Conductor*%
%TO.N,SCLK_OSD*%
G36*
X111836623Y-104428950D02*
G01*
X111840963Y-104436783D01*
X111841038Y-104438106D01*
X111841038Y-104670239D01*
X111837715Y-104678407D01*
X111554773Y-104968560D01*
X111534933Y-104988399D01*
X111526660Y-104991826D01*
X111518406Y-104988419D01*
X111317364Y-104788321D01*
X111313918Y-104780056D01*
X111313918Y-104779989D01*
X111314867Y-104495284D01*
X111318321Y-104487022D01*
X111325243Y-104483698D01*
X111828017Y-104426481D01*
X111836623Y-104428950D01*
G37*
%TD.AperFunction*%
%TD*%
%TA.AperFunction,Conductor*%
%TO.N,MISO_OSD*%
G36*
X111125569Y-103777414D02*
G01*
X111582934Y-103971971D01*
X111589205Y-103978362D01*
X111590054Y-103982737D01*
X111590054Y-104215547D01*
X111586627Y-104223820D01*
X111580813Y-104226986D01*
X111375484Y-104271124D01*
X111374916Y-104271217D01*
X111302013Y-104279514D01*
X111302009Y-104279515D01*
X111286727Y-104283918D01*
X111283488Y-104284375D01*
X111242940Y-104284375D01*
X111122935Y-104319611D01*
X111114032Y-104318654D01*
X111108843Y-104312897D01*
X111000883Y-104054509D01*
X111000857Y-104045556D01*
X111000862Y-104045542D01*
X111110266Y-103783698D01*
X111116617Y-103777388D01*
X111125569Y-103777414D01*
G37*
%TD.AperFunction*%
%TD*%
%TA.AperFunction,Conductor*%
%TO.N,MISO_OSD*%
G36*
X115662481Y-92662694D02*
G01*
X115712459Y-92682232D01*
X115718917Y-92688436D01*
X115719096Y-92697389D01*
X115716472Y-92701402D01*
X115554006Y-92863868D01*
X115550190Y-92866413D01*
X115178968Y-93019342D01*
X115170013Y-93019325D01*
X115163707Y-93013015D01*
X115054543Y-92750416D01*
X115054532Y-92741462D01*
X115163777Y-92480003D01*
X115170128Y-92473693D01*
X115178830Y-92473619D01*
X115662481Y-92662694D01*
G37*
%TD.AperFunction*%
%TD*%
M02*
